<?xml version="1.0" encoding="utf-8"?>
<!-- Generator: Adobe Illustrator 16.0.0, SVG Export Plug-In . SVG Version: 6.00 Build 0)  -->
<!DOCTYPE svg PUBLIC "-//W3C//DTD SVG 1.1//EN" "http://www.w3.org/Graphics/SVG/1.1/DTD/svg11.dtd">
<svg version="1.1" id="Layer_1" xmlns="http://www.w3.org/2000/svg" xmlns:xlink="http://www.w3.org/1999/xlink" x="0px" y="0px"
	 width="1011px" height="255.877px" viewBox="-3 -2 1011 255.877" enable-background="new -3 -2 1011 255.877" xml:space="preserve"
	>
<g id="Layer_2">
</g>
<g id="Layer_1_1_">
	<g>
		<path fill="#5F5F5D" stroke="#000000" stroke-width="18.7985" stroke-linejoin="round" stroke-miterlimit="10" d="
			M439.907,253.877"/>
		<path fill="#5F5F5D" stroke="#000000" stroke-width="18.7985" stroke-linejoin="round" stroke-miterlimit="10" d="M439.907,154.45
			"/>
		<path fill="#5F5F5D" d="M378.232,238.287c-62.222,0-112.842-50.621-112.842-112.842c0-62.222,50.621-112.843,112.842-112.843
			c62.222,0,112.841,50.621,112.841,112.843C491.073,187.666,440.454,238.287,378.232,238.287z M378.232,14.482
			c-61.185,0-110.962,49.778-110.962,110.963c0,61.184,49.777,110.961,110.962,110.961s110.962-49.777,110.962-110.961
			C489.194,64.26,439.417,14.482,378.232,14.482z"/>
		<path fill="#5F5F5D" d="M380.177,195.626c-0.507,0-0.925-0.404-0.939-0.915c-0.014-0.518,0.395-0.95,0.914-0.965l0.373-0.011
			c0.52-0.023,0.953,0.392,0.969,0.91c0.016,0.519-0.392,0.952-0.91,0.969l-0.38,0.011
			C380.194,195.626,380.186,195.626,380.177,195.626z M372.649,195.431c-0.024,0-0.049-0.001-0.074-0.003l-0.384-0.031
			c-0.517-0.045-0.9-0.5-0.856-1.018c0.044-0.517,0.497-0.9,1.017-0.855l0.368,0.03c0.518,0.04,0.904,0.492,0.864,1.01
			C373.547,195.057,373.136,195.431,372.649,195.431z M388.055,194.962c-0.461,0-0.863-0.339-0.93-0.809
			c-0.073-0.515,0.285-0.989,0.799-1.062l0.368-0.054c0.521-0.081,0.991,0.28,1.066,0.794c0.075,0.514-0.281,0.991-0.794,1.066
			l-0.377,0.055C388.143,194.959,388.098,194.962,388.055,194.962z M364.815,194.354c-0.061,0-0.122-0.006-0.183-0.019l-0.374-0.074
			c-0.509-0.103-0.838-0.599-0.735-1.107c0.103-0.51,0.602-0.838,1.108-0.734l0.365,0.072c0.509,0.102,0.841,0.596,0.74,1.104
			C365.648,194.045,365.255,194.354,364.815,194.354z M395.807,193.404c-0.417,0-0.799-0.279-0.909-0.703
			c-0.131-0.502,0.17-1.016,0.672-1.146l0.36-0.095c0.5-0.136,1.016,0.165,1.15,0.667c0.134,0.501-0.165,1.016-0.667,1.149
			l-0.369,0.098C395.965,193.395,395.886,193.404,395.807,193.404z M357.156,192.389c-0.095,0-0.191-0.014-0.286-0.045l-0.366-0.117
			c-0.493-0.161-0.763-0.691-0.602-1.186s0.691-0.763,1.185-0.602l0.353,0.113c0.495,0.158,0.768,0.687,0.61,1.182
			C357.924,192.134,357.554,192.389,357.156,192.389z M403.333,190.967c-0.376,0-0.731-0.228-0.875-0.6
			c-0.189-0.482,0.05-1.027,0.534-1.217l0.348-0.137c0.483-0.191,1.029,0.046,1.22,0.529c0.191,0.482-0.045,1.028-0.528,1.219
			l-0.356,0.141C403.563,190.945,403.447,190.967,403.333,190.967z M349.772,189.556c-0.129,0-0.259-0.026-0.384-0.083l-0.349-0.158
			c-0.472-0.217-0.679-0.774-0.462-1.246c0.216-0.473,0.773-0.68,1.246-0.462l0.334,0.151c0.474,0.213,0.686,0.77,0.473,1.242
			C350.474,189.35,350.131,189.556,349.772,189.556z M410.53,187.68c-0.338,0-0.665-0.182-0.833-0.502
			c-0.242-0.459-0.065-1.027,0.394-1.27l0.327-0.174c0.459-0.244,1.027-0.072,1.273,0.384c0.246,0.457,0.074,1.026-0.383,1.272
			l-0.34,0.182C410.828,187.646,410.678,187.68,410.53,187.68z M342.765,185.898c-0.164,0-0.329-0.043-0.48-0.133l-0.328-0.196
			c-0.444-0.269-0.586-0.847-0.318-1.29c0.268-0.445,0.845-0.588,1.291-0.318l0.317,0.189c0.446,0.266,0.592,0.843,0.327,1.289
			C343.398,185.734,343.085,185.898,342.765,185.898z M417.304,183.594c-0.301,0-0.596-0.145-0.778-0.412
			c-0.292-0.429-0.181-1.014,0.248-1.305l0.304-0.21c0.427-0.296,1.011-0.19,1.308,0.237c0.296,0.426,0.19,1.012-0.237,1.308
			l-0.318,0.218C417.67,183.541,417.486,183.594,417.304,183.594z M336.22,181.465c-0.199,0-0.4-0.063-0.57-0.193l-0.303-0.232
			c-0.411-0.317-0.486-0.908-0.168-1.318c0.318-0.41,0.907-0.486,1.319-0.168l0.294,0.226c0.413,0.315,0.491,0.905,0.176,1.317
			C336.782,181.338,336.503,181.465,336.22,181.465z M423.566,178.764c-0.265,0-0.526-0.111-0.712-0.327
			c-0.34-0.394-0.295-0.986,0.098-1.325l0.279-0.242c0.392-0.342,0.984-0.303,1.326,0.087c0.342,0.391,0.303,0.984-0.088,1.327
			l-0.291,0.252C424.002,178.688,423.784,178.764,423.566,178.764z M330.22,176.317c-0.235,0-0.471-0.088-0.654-0.265l-0.272-0.264
			c-0.372-0.362-0.38-0.957-0.019-1.329c0.363-0.373,0.958-0.38,1.329-0.019l0.269,0.261c0.373,0.36,0.383,0.956,0.021,1.329
			C330.711,176.222,330.465,176.317,330.22,176.317z M429.239,173.255c-0.229,0-0.456-0.082-0.637-0.249
			c-0.382-0.352-0.406-0.945-0.055-1.328l0.25-0.273c0.348-0.385,0.943-0.412,1.328-0.063c0.384,0.35,0.412,0.944,0.063,1.328
			l-0.258,0.281C429.745,173.152,429.493,173.255,429.239,173.255z M324.841,170.521c-0.271,0-0.54-0.117-0.726-0.343l-0.241-0.294
			c-0.329-0.401-0.27-0.994,0.131-1.322c0.401-0.329,0.994-0.27,1.323,0.131l0.238,0.29c0.33,0.4,0.273,0.993-0.128,1.323
			C325.263,170.451,325.051,170.521,324.841,170.521z M434.251,167.14c-0.191,0-0.385-0.058-0.551-0.179
			c-0.42-0.306-0.514-0.894-0.209-1.313l0.219-0.302c0.303-0.422,0.891-0.518,1.313-0.213c0.421,0.304,0.516,0.891,0.213,1.313
			l-0.223,0.307C434.829,167.006,434.542,167.14,434.251,167.14z M320.153,164.15c-0.307,0-0.608-0.149-0.788-0.426l-0.209-0.324
			c-0.28-0.437-0.153-1.018,0.285-1.298c0.436-0.281,1.018-0.153,1.298,0.284l0.201,0.311c0.284,0.435,0.161,1.018-0.273,1.301
			C320.507,164.102,320.329,164.15,320.153,164.15z M438.536,160.496c-0.156,0-0.315-0.039-0.461-0.121
			c-0.453-0.256-0.611-0.829-0.356-1.281l0.182-0.322c0.253-0.453,0.825-0.616,1.278-0.363s0.616,0.826,0.363,1.279l-0.187,0.331
			C439.183,160.324,438.864,160.496,438.536,160.496z M316.219,157.287c-0.345,0-0.678-0.191-0.842-0.521l-0.169-0.341
			c-0.23-0.466-0.039-1.029,0.427-1.259c0.465-0.23,1.029-0.038,1.259,0.427l0.167,0.335c0.231,0.465,0.042,1.029-0.422,1.261
			C316.503,157.256,316.36,157.287,316.219,157.287z M442.034,153.408c-0.123,0-0.247-0.023-0.367-0.074
			c-0.478-0.203-0.701-0.754-0.498-1.232l0.145-0.343c0.199-0.479,0.75-0.706,1.23-0.503c0.479,0.201,0.703,0.752,0.502,1.23
			l-0.146,0.349C442.748,153.193,442.399,153.408,442.034,153.408z M313.097,150.02c-0.384,0-0.745-0.238-0.884-0.621l-0.129-0.358
			c-0.175-0.489,0.079-1.026,0.568-1.202c0.49-0.176,1.027,0.08,1.202,0.568l0.127,0.354c0.177,0.487-0.076,1.026-0.564,1.203
			C313.311,150.001,313.203,150.02,313.097,150.02z M444.698,145.965c-0.088,0-0.178-0.013-0.268-0.039
			c-0.497-0.146-0.781-0.67-0.635-1.168l0.104-0.355c0.145-0.498,0.663-0.785,1.164-0.643c0.498,0.143,0.787,0.664,0.643,1.162
			l-0.107,0.369C445.479,145.699,445.104,145.965,444.698,145.965z M310.829,142.438c-0.426,0-0.812-0.292-0.914-0.724l-0.087-0.371
			c-0.117-0.506,0.199-1.011,0.705-1.128c0.5-0.116,1.01,0.198,1.127,0.704l0.085,0.363c0.119,0.505-0.194,1.011-0.699,1.131
			C310.973,142.431,310.901,142.438,310.829,142.438z M446.489,138.263c-0.053,0-0.107-0.005-0.162-0.015
			c-0.511-0.088-0.854-0.574-0.764-1.086l0.061-0.364c0.086-0.513,0.57-0.859,1.081-0.774c0.513,0.085,0.858,0.568,0.774,1.081
			l-0.064,0.38C447.335,137.941,446.938,138.263,446.489,138.263z M309.448,134.652c-0.47,0-0.876-0.352-0.933-0.829l-0.044-0.378
			c-0.058-0.517,0.313-0.982,0.828-1.041c0.518-0.057,0.981,0.313,1.04,0.828l0.043,0.37c0.061,0.516-0.308,0.983-0.823,1.044
			C309.521,134.65,309.484,134.652,309.448,134.652z M447.39,130.407c-0.018,0-0.037-0.001-0.055-0.001
			c-0.519-0.031-0.914-0.476-0.885-0.994l0.021-0.369c0.025-0.519,0.466-0.909,0.985-0.891c0.519,0.025,0.917,0.467,0.892,0.986
			l-0.021,0.383C448.298,130.021,447.884,130.407,447.39,130.407z M308.961,126.76c-0.518,0-0.938-0.418-0.94-0.936l-0.001-0.525
			c0-0.519,0.421-0.94,0.94-0.94s0.94,0.421,0.94,0.94l0.001,0.519c0.002,0.519-0.417,0.941-0.937,0.943
			C308.964,126.76,308.962,126.76,308.961,126.76z M447.396,122.5c-0.496,0-0.91-0.388-0.938-0.889l-0.021-0.369
			c-0.033-0.518,0.361-0.964,0.879-0.997c0.516-0.039,0.965,0.361,0.997,0.879l0.022,0.383c0.028,0.519-0.369,0.961-0.887,0.99
			C447.431,122.5,447.413,122.5,447.396,122.5z M309.38,118.719c-0.034,0-0.068-0.002-0.103-0.005
			c-0.516-0.057-0.889-0.521-0.833-1.037l0.043-0.382c0.061-0.515,0.525-0.887,1.043-0.824c0.516,0.061,0.884,0.528,0.824,1.043
			l-0.042,0.367C310.261,118.363,309.854,118.719,309.38,118.719z M446.512,114.642c-0.45,0-0.849-0.324-0.926-0.783l-0.063-0.363
			c-0.09-0.511,0.25-0.999,0.762-1.09c0.51-0.091,0.998,0.25,1.09,0.761l0.065,0.379c0.087,0.512-0.258,0.997-0.771,1.083
			C446.616,114.638,446.563,114.642,446.512,114.642z M310.693,110.922c-0.069,0-0.139-0.007-0.209-0.023
			c-0.506-0.115-0.824-0.619-0.708-1.125l0.086-0.375c0.12-0.505,0.628-0.82,1.131-0.699c0.505,0.119,0.818,0.625,0.699,1.13
			l-0.083,0.359C311.509,110.626,311.122,110.922,310.693,110.922z M444.736,106.937c-0.407,0-0.782-0.266-0.901-0.677l-0.105-0.357
			c-0.148-0.498,0.136-1.021,0.633-1.168c0.496-0.149,1.021,0.136,1.169,0.633l0.108,0.366c0.145,0.499-0.142,1.021-0.64,1.166
			C444.912,106.925,444.823,106.937,444.736,106.937z M312.89,103.326c-0.104,0-0.21-0.017-0.313-0.054
			c-0.489-0.173-0.746-0.71-0.573-1.2l0.128-0.359c0.175-0.488,0.714-0.743,1.202-0.566c0.489,0.175,0.742,0.714,0.566,1.202
			l-0.125,0.351C313.64,103.085,313.277,103.326,312.89,103.326z M442.088,99.484c-0.367,0-0.716-0.216-0.867-0.576l-0.145-0.341
			c-0.205-0.477,0.015-1.03,0.491-1.235c0.478-0.206,1.031,0.015,1.235,0.492l0.151,0.355c0.201,0.479-0.023,1.03-0.502,1.231
			C442.333,99.46,442.209,99.484,442.088,99.484z M315.945,96.032c-0.138,0-0.278-0.03-0.411-0.095
			c-0.467-0.228-0.661-0.79-0.434-1.257l0.168-0.343c0.231-0.465,0.795-0.654,1.26-0.425c0.465,0.23,0.655,0.794,0.425,1.26
			l-0.163,0.331C316.628,95.838,316.293,96.032,315.945,96.032z M438.602,92.383c-0.328,0-0.647-0.172-0.819-0.478l-0.184-0.324
			c-0.258-0.451-0.102-1.025,0.35-1.282c0.449-0.257,1.024-0.101,1.281,0.35l0.189,0.333c0.256,0.452,0.096,1.025-0.356,1.28
			C438.917,92.344,438.758,92.383,438.602,92.383z M319.813,89.139c-0.173,0-0.348-0.048-0.505-0.148
			c-0.438-0.279-0.566-0.86-0.286-1.298l0.205-0.319c0.282-0.436,0.862-0.561,1.299-0.282c0.437,0.281,0.563,0.863,0.282,1.299
			l-0.202,0.313C320.426,88.986,320.123,89.139,319.813,89.139z M434.327,85.727c-0.291,0-0.578-0.134-0.762-0.388l-0.219-0.3
			c-0.309-0.418-0.219-1.007,0.199-1.314c0.418-0.308,1.006-0.218,1.314,0.2l0.227,0.31c0.305,0.42,0.211,1.008-0.209,1.313
			C434.712,85.669,434.519,85.727,434.327,85.727z M324.442,82.73c-0.208,0-0.417-0.068-0.591-0.209
			c-0.403-0.326-0.466-0.918-0.14-1.322l0.242-0.296c0.328-0.402,0.92-0.461,1.323-0.131c0.401,0.329,0.46,0.921,0.131,1.323
			l-0.234,0.287C324.987,82.611,324.716,82.73,324.442,82.73z M429.324,79.601c-0.255,0-0.509-0.103-0.694-0.305l-0.251-0.273
			c-0.353-0.381-0.33-0.976,0.051-1.328c0.382-0.353,0.976-0.33,1.328,0.051l0.259,0.281c0.352,0.383,0.324,0.978-0.059,1.328
			C429.778,79.52,429.551,79.601,429.324,79.601z M329.768,76.885c-0.244,0-0.488-0.094-0.672-0.283
			c-0.363-0.371-0.356-0.966,0.015-1.329l0.273-0.266c0.374-0.361,0.969-0.351,1.329,0.021c0.361,0.373,0.352,0.968-0.021,1.329
			l-0.267,0.259C330.243,76.796,330.005,76.885,329.768,76.885z M423.659,74.083c-0.219,0-0.438-0.076-0.616-0.231l-0.278-0.241
			c-0.395-0.337-0.441-0.931-0.104-1.325s0.932-0.44,1.326-0.103l0.29,0.251c0.392,0.341,0.433,0.935,0.091,1.326
			C424.183,73.973,423.922,74.083,423.659,74.083z M335.724,71.682c-0.28,0-0.557-0.125-0.742-0.363
			c-0.319-0.41-0.245-1,0.165-1.319l0.302-0.234c0.412-0.316,1.002-0.24,1.318,0.172c0.317,0.411,0.24,1.001-0.171,1.318
			l-0.294,0.228C336.129,71.618,335.926,71.682,335.724,71.682z M417.407,69.242c-0.183,0-0.367-0.053-0.53-0.164l-0.308-0.21
			c-0.429-0.292-0.541-0.876-0.249-1.306c0.291-0.429,0.875-0.542,1.306-0.249l0.313,0.213c0.428,0.293,0.538,0.878,0.245,1.307
			C418.001,69.099,417.707,69.242,417.407,69.242z M342.232,67.187c-0.317,0-0.626-0.16-0.804-0.451
			c-0.27-0.443-0.129-1.021,0.314-1.292l0.327-0.198c0.445-0.268,1.022-0.124,1.29,0.32c0.268,0.445,0.124,1.022-0.32,1.29
			l-0.319,0.193C342.568,67.143,342.399,67.187,342.232,67.187z M410.646,65.145c-0.148,0-0.299-0.035-0.44-0.11l-0.325-0.171
			c-0.46-0.239-0.64-0.807-0.4-1.268c0.24-0.46,0.808-0.638,1.268-0.4l0.339,0.179c0.458,0.243,0.633,0.813,0.389,1.271
			C411.309,64.964,410.983,65.145,410.646,65.145z M349.21,63.463c-0.355,0-0.695-0.202-0.854-0.546
			c-0.217-0.472-0.012-1.03,0.459-1.248l0.348-0.16c0.474-0.214,1.03-0.006,1.245,0.466c0.215,0.473,0.006,1.03-0.466,1.245
			l-0.339,0.156C349.476,63.436,349.342,63.463,349.21,63.463z M403.461,61.847c-0.114,0-0.229-0.021-0.342-0.065l-0.345-0.134
			c-0.485-0.186-0.727-0.729-0.541-1.214c0.186-0.484,0.729-0.727,1.214-0.541l0.358,0.139c0.483,0.189,0.722,0.734,0.532,1.218
			C404.191,61.621,403.837,61.847,403.461,61.847z M356.571,60.563c-0.395,0-0.762-0.25-0.893-0.645
			c-0.163-0.493,0.104-1.024,0.598-1.188l0.367-0.12c0.497-0.16,1.024,0.113,1.183,0.607c0.159,0.495-0.113,1.024-0.607,1.183
			l-0.353,0.115C356.769,60.548,356.669,60.563,356.571,60.563z M395.944,59.394c-0.08,0-0.161-0.01-0.241-0.031l-0.358-0.094
			c-0.503-0.129-0.806-0.642-0.676-1.144c0.129-0.503,0.637-0.808,1.144-0.676l0.372,0.097c0.502,0.133,0.801,0.648,0.668,1.149
			C396.741,59.116,396.36,59.394,395.944,59.394z M364.216,58.527c-0.437,0-0.828-0.306-0.919-0.75
			c-0.105-0.508,0.222-1.005,0.73-1.11l0.376-0.076c0.513-0.1,1.004,0.23,1.105,0.739c0.101,0.509-0.23,1.004-0.739,1.105
			l-0.362,0.073C364.343,58.521,364.279,58.527,364.216,58.527z M388.196,57.82c-0.045,0-0.09-0.003-0.136-0.01l-0.367-0.052
			c-0.514-0.07-0.874-0.544-0.803-1.059c0.07-0.514,0.542-0.874,1.059-0.803l0.38,0.054c0.514,0.075,0.87,0.551,0.795,1.065
			C389.057,57.483,388.655,57.82,388.196,57.82z M372.04,57.382c-0.481,0-0.891-0.367-0.935-0.856
			c-0.046-0.517,0.335-0.974,0.852-1.02l0.383-0.033c0.532-0.04,0.971,0.343,1.014,0.86c0.042,0.518-0.343,0.971-0.86,1.014
			l-0.368,0.031C372.096,57.381,372.067,57.382,372.04,57.382z M380.319,57.14c-0.01,0-0.02,0-0.03,0l-0.369-0.01
			c-0.519-0.012-0.93-0.442-0.917-0.961c0.012-0.511,0.43-0.918,0.939-0.918c0.007,0,0.015,0,0.022,0l0.383,0.01
			c0.519,0.016,0.926,0.45,0.91,0.969C381.242,56.738,380.825,57.14,380.319,57.14z"/>
		<path fill="#5F5F5D" d="M393.166,215.761l-0.304-1.855c43.469-7.126,75.02-44.329,75.02-88.46h1.879
			c0,21.836-7.814,42.981-22.002,59.537C433.722,201.359,414.333,212.291,393.166,215.761z"/>
		<path fill="#5F5F5D" d="M362.419,215.611c-43.873-7.643-75.716-45.563-75.716-90.167h1.88c0,43.688,31.188,80.829,74.159,88.315
			L362.419,215.611z"/>
		<g>
			<path fill="#5F5F5D" d="M300.869,104.552l-0.419,2.143l-12.02,1.078l10.73,5.509l-0.419,2.143l-17.058,1.062l0.51-2.598
				l12.153-0.555l-10.962-5.53l0.388-1.983l12.239-0.988l-11.047-5.098l0.508-2.598L300.869,104.552z"/>
			<path fill="#5F5F5D" d="M306.76,89.46l-6.581-2.976l-2.766,6.116l6.582,2.976l-1.033,2.286l-15.067-6.813l1.033-2.286
				l6.434,2.909l2.766-6.116l-6.434-2.908l1.034-2.286l15.067,6.812L306.76,89.46z"/>
			<path fill="#5F5F5D" d="M315.741,75.411l-3.364-1.007l-3.798,5.308l2.039,2.858l-1.554,2.171l-9.92-14.552l1.176-1.643
				l16.975,4.693L315.741,75.411z M302.825,71.509l4.468,6.368l2.96-4.136L302.825,71.509z"/>
			<path fill="#5F5F5D" d="M312.236,58.203l10.135,10.063l-1.768,1.78l-10.135-10.063l-3.207,3.23l-1.599-1.587l8.182-8.24
				l1.598,1.587L312.236,58.203z"/>
			<path fill="#5F5F5D" d="M344.979,52.538l-1.917,1.043l-8.494-8.573l2.598,11.779l-1.918,1.042l-11.693-12.463l2.325-1.265
				l8.178,9.01l-2.729-11.971l1.775-0.966l8.564,8.799l-3.117-11.761l2.326-1.265L344.979,52.538z"/>
			<path fill="#5F5F5D" d="M351.515,49.939l-4.564-15.893l10.156-2.917l0.622,2.166l-7.745,2.225l1.333,4.643l6.608-1.898
				l0.616,2.144l-6.608,1.897l1.373,4.777l7.746-2.225l0.622,2.166L351.515,49.939z"/>
			<path fill="#5F5F5D" d="M371.9,45.634l-0.357-16.532l2.507-0.054l0.31,14.279l7.964-0.172l0.048,2.252L371.9,45.634z"/>
			<path fill="#5F5F5D" d="M397.542,39.178c-0.119,0.781-0.236,1.487-0.347,2.12c-0.113,0.633-0.255,1.204-0.427,1.709
				c-0.17,0.506-0.398,0.965-0.68,1.375c-0.282,0.412-0.652,0.786-1.111,1.123c-0.653,0.479-1.363,0.813-2.128,1.001
				c-0.765,0.188-1.583,0.216-2.456,0.083c-0.872-0.134-1.641-0.404-2.308-0.812c-0.665-0.407-1.239-0.938-1.718-1.591
				c-0.337-0.458-0.579-0.926-0.725-1.402c-0.148-0.477-0.229-0.983-0.25-1.519c-0.02-0.536,0.011-1.123,0.094-1.759
				c0.081-0.638,0.182-1.347,0.302-2.127c0.118-0.78,0.235-1.487,0.347-2.12c0.113-0.632,0.259-1.201,0.438-1.707
				c0.179-0.505,0.409-0.963,0.693-1.375c0.281-0.41,0.652-0.784,1.111-1.122c0.652-0.479,1.357-0.814,2.115-1.004
				c0.758-0.189,1.573-0.218,2.446-0.084c0.872,0.133,1.645,0.404,2.318,0.813c0.673,0.408,1.25,0.939,1.73,1.592
				c0.336,0.459,0.578,0.927,0.725,1.403c0.146,0.477,0.225,0.982,0.238,1.517c0.012,0.535-0.023,1.12-0.104,1.758
				C397.762,37.688,397.662,38.397,397.542,39.178z M395.063,38.798c0.126-0.826,0.22-1.512,0.281-2.059
				c0.06-0.547,0.084-1.013,0.072-1.399c-0.011-0.385-0.063-0.714-0.155-0.986c-0.091-0.273-0.22-0.531-0.386-0.776
				c-0.244-0.35-0.563-0.65-0.955-0.898c-0.393-0.248-0.834-0.41-1.324-0.484s-0.958-0.053-1.408,0.066
				c-0.449,0.12-0.842,0.31-1.18,0.572c-0.231,0.184-0.432,0.392-0.602,0.625c-0.168,0.232-0.316,0.531-0.441,0.896
				c-0.126,0.365-0.243,0.817-0.349,1.357s-0.221,1.223-0.349,2.049c-0.126,0.827-0.22,1.514-0.28,2.06
				c-0.061,0.547-0.085,1.013-0.073,1.398c0.011,0.386,0.063,0.714,0.153,0.987c0.092,0.272,0.221,0.531,0.387,0.776
				c0.244,0.351,0.563,0.649,0.956,0.898c0.392,0.248,0.834,0.41,1.324,0.484c0.488,0.075,0.958,0.053,1.408-0.066
				c0.449-0.12,0.842-0.31,1.18-0.572c0.231-0.184,0.433-0.392,0.601-0.625c0.169-0.232,0.316-0.53,0.443-0.895
				c0.126-0.364,0.242-0.816,0.348-1.356C394.82,40.308,394.937,39.625,395.063,38.798z"/>
			<path fill="#5F5F5D" d="M405.125,50.153l-1.846-0.632l0.226-17.405l2.459,0.844l-0.3,12.615l7.506-10.143l2.504,0.859
				L405.125,50.153z"/>
			<path fill="#5F5F5D" d="M412.773,53.183l8.029-14.456l9.236,5.131l-1.092,1.969l-7.046-3.913l-2.346,4.223l6.009,3.338
				l-1.082,1.949l-6.01-3.338l-2.413,4.345l7.045,3.914l-1.096,1.969L412.773,53.183z"/>
			<path fill="#5F5F5D" d="M444.151,58.128l-9.861,10.333l-1.814-1.732l9.86-10.332l-3.292-3.143l1.555-1.63l8.4,8.018l-1.556,1.629
				L444.151,58.128z"/>
			<path fill="#5F5F5D" d="M452.8,77.975c-0.637,0.468-1.219,0.887-1.742,1.255c-0.528,0.368-1.031,0.671-1.51,0.908
				s-0.964,0.401-1.453,0.494c-0.49,0.092-1.018,0.095-1.58,0.009c-0.801-0.122-1.539-0.386-2.213-0.793
				c-0.675-0.407-1.273-0.966-1.797-1.676s-0.877-1.446-1.061-2.204c-0.184-0.759-0.215-1.539-0.094-2.34
				c0.086-0.563,0.246-1.064,0.479-1.505c0.233-0.441,0.531-0.858,0.896-1.251c0.364-0.393,0.801-0.786,1.31-1.18
				c0.508-0.394,1.08-0.824,1.715-1.292c0.637-0.468,1.218-0.887,1.744-1.255s1.032-0.668,1.516-0.899
				c0.484-0.231,0.971-0.392,1.461-0.484s1.016-0.095,1.58-0.009c0.799,0.121,1.535,0.383,2.205,0.783
				c0.67,0.401,1.268,0.957,1.791,1.667s0.879,1.448,1.066,2.213c0.188,0.765,0.223,1.548,0.1,2.349
				c-0.086,0.563-0.244,1.064-0.479,1.505c-0.232,0.441-0.533,0.855-0.902,1.242c-0.369,0.387-0.807,0.777-1.314,1.17
				C454.007,77.076,453.437,77.507,452.8,77.975z M451.313,75.955c0.672-0.496,1.223-0.916,1.652-1.261
				c0.428-0.345,0.775-0.657,1.041-0.938c0.262-0.282,0.459-0.55,0.586-0.808c0.129-0.257,0.219-0.531,0.275-0.822
				c0.074-0.42,0.061-0.857-0.043-1.311c-0.104-0.453-0.301-0.879-0.594-1.278c-0.295-0.399-0.643-0.714-1.045-0.947
				c-0.402-0.233-0.814-0.376-1.238-0.43c-0.295-0.033-0.582-0.028-0.866,0.018c-0.283,0.045-0.6,0.153-0.946,0.321
				c-0.347,0.169-0.748,0.407-1.205,0.714c-0.455,0.307-1.02,0.708-1.693,1.204c-0.673,0.496-1.225,0.916-1.654,1.261
				c-0.428,0.345-0.774,0.657-1.039,0.938c-0.265,0.281-0.46,0.55-0.588,0.808c-0.127,0.257-0.219,0.531-0.273,0.822
				c-0.076,0.42-0.063,0.857,0.041,1.311c0.103,0.453,0.301,0.878,0.596,1.278c0.293,0.399,0.641,0.714,1.044,0.947
				c0.401,0.232,0.813,0.376,1.238,0.429c0.293,0.033,0.582,0.027,0.866-0.018c0.284-0.046,0.598-0.152,0.945-0.321
				s0.748-0.407,1.205-0.714S450.64,76.451,451.313,75.955z"/>
			<path fill="#5F5F5D" d="M463.116,100.242c-0.566,0.212-1.139,0.424-1.721,0.634c-0.582,0.21-1.166,0.376-1.75,0.496
				s-1.17,0.166-1.758,0.139c-0.59-0.027-1.174-0.171-1.752-0.434c-0.678-0.308-1.264-0.758-1.76-1.349
				c-0.494-0.592-0.895-1.294-1.199-2.105l-2.039-5.436l15.482-5.81l2.039,5.436c0.305,0.811,0.465,1.603,0.482,2.374
				c0.016,0.771-0.131,1.496-0.438,2.173c-0.264,0.578-0.596,1.067-1,1.467c-0.404,0.399-0.854,0.742-1.35,1.027
				c-0.498,0.286-1.02,0.535-1.568,0.75C464.237,99.817,463.681,100.03,463.116,100.242z M462.235,97.895
				c1.072-0.402,1.961-0.778,2.666-1.125c0.703-0.348,1.205-0.808,1.502-1.383c0.457-0.899,0.477-1.906,0.057-3.022l-1.068-2.849
				l-11.264,4.227l1.07,2.849c0.418,1.116,1.096,1.862,2.031,2.24c0.6,0.237,1.316,0.241,2.148,0.012
				C460.21,98.612,461.161,98.297,462.235,97.895z"/>
			<path fill="#5F5F5D" d="M466.231,116.967c-0.779,0.128-1.488,0.236-2.125,0.325c-0.637,0.088-1.221,0.129-1.756,0.123
				s-1.041-0.08-1.52-0.222c-0.477-0.141-0.947-0.378-1.41-0.71c-0.658-0.473-1.195-1.043-1.611-1.712
				c-0.416-0.67-0.695-1.44-0.838-2.311c-0.143-0.871-0.123-1.687,0.059-2.445c0.182-0.759,0.508-1.468,0.98-2.126
				c0.332-0.463,0.701-0.837,1.109-1.124c0.408-0.287,0.865-0.522,1.367-0.707c0.502-0.185,1.07-0.337,1.703-0.456
				c0.631-0.119,1.336-0.243,2.115-0.37c0.779-0.128,1.486-0.237,2.123-0.326s1.223-0.126,1.76-0.111
				c0.535,0.014,1.043,0.091,1.52,0.233c0.479,0.141,0.949,0.377,1.412,0.71c0.658,0.472,1.193,1.039,1.607,1.701
				s0.693,1.428,0.836,2.299c0.145,0.871,0.125,1.689-0.055,2.457c-0.18,0.767-0.506,1.479-0.979,2.137
				c-0.332,0.462-0.703,0.836-1.111,1.124c-0.406,0.287-0.863,0.519-1.369,0.695c-0.504,0.177-1.072,0.326-1.703,0.445
				S467.009,116.839,466.231,116.967z M465.825,114.492c0.824-0.135,1.506-0.259,2.045-0.371c0.539-0.112,0.99-0.232,1.352-0.363
				c0.363-0.13,0.66-0.281,0.893-0.452c0.23-0.172,0.436-0.375,0.617-0.608c0.26-0.34,0.443-0.735,0.559-1.186
				c0.115-0.45,0.133-0.92,0.051-1.409c-0.08-0.489-0.246-0.929-0.498-1.318c-0.254-0.391-0.555-0.706-0.908-0.945
				c-0.246-0.164-0.506-0.29-0.779-0.379c-0.275-0.088-0.604-0.136-0.99-0.143c-0.385-0.007-0.85,0.021-1.396,0.088
				c-0.547,0.066-1.232,0.167-2.057,0.302s-1.506,0.259-2.045,0.371c-0.539,0.113-0.99,0.233-1.354,0.363s-0.66,0.281-0.891,0.452
				c-0.23,0.171-0.438,0.374-0.617,0.607c-0.26,0.341-0.445,0.736-0.559,1.187c-0.115,0.45-0.133,0.92-0.053,1.409
				s0.246,0.928,0.5,1.318c0.252,0.39,0.555,0.705,0.908,0.945c0.246,0.164,0.506,0.29,0.779,0.378
				c0.273,0.089,0.604,0.137,0.988,0.144c0.387,0.007,0.852-0.022,1.398-0.088C464.313,114.728,464.999,114.627,465.825,114.492z"/>
		</g>
		<g>
			<path fill="#5F5F5D" d="M358.997,152.887l-9.142-9.143l52.925-52.923l9.143,9.143L358.997,152.887z M352.513,143.744l6.484,6.484
				l50.268-50.265l-6.484-6.484L352.513,143.744z"/>
			
				<rect x="379.946" y="85.369" transform="matrix(-0.7071 -0.7071 0.7071 -0.7071 564.0488 477.3437)" fill="#5F5F5D" width="1.88" height="72.969"/>
			<polygon fill="#5F5F5D" points="344.806,157.935 350.041,143.676 351.806,144.324 347.971,154.769 358.412,150.932 
				359.06,152.696 			"/>
			
				<rect x="348.306" y="150.781" transform="matrix(-0.7074 -0.7069 0.7069 -0.7074 492.3788 507.2891)" fill="#5F5F5D" width="5.787" height="1.88"/>
			<path fill="#5F5F5D" d="M410.594,101.293l-9.143-9.143l4.718-4.722l9.143,9.142L410.594,101.293z M404.109,92.15l6.484,6.484
				l2.061-2.063l-6.484-6.484L404.109,92.15z"/>
		</g>
		<g>
			<path fill="#5F5F5D" d="M378.37,224.178h-0.881l-0.28-0.311c-0.425-0.471-0.909-0.904-1.439-1.288
				c-0.575-0.415-1.16-0.818-1.756-1.209c-0.619-0.405-1.222-0.818-1.808-1.239c-0.627-0.45-1.194-0.955-1.687-1.5
				c-0.515-0.57-0.935-1.221-1.247-1.934c-0.324-0.738-0.488-1.594-0.488-2.539c0-0.83,0.132-1.584,0.393-2.238
				c0.264-0.664,0.633-1.232,1.096-1.691c0.463-0.458,1.005-0.811,1.613-1.049c1.167-0.455,2.566-0.434,3.604-0.125
				c0.502,0.15,0.96,0.356,1.36,0.613c0.394,0.252,0.748,0.547,1.054,0.875c0.007,0.008,0.014,0.015,0.021,0.021
				c0.007-0.007,0.014-0.014,0.021-0.021c0.306-0.328,0.661-0.623,1.054-0.875c0.401-0.257,0.858-0.463,1.361-0.613
				c1.038-0.309,2.437-0.33,3.603,0.125c0.608,0.238,1.151,0.591,1.613,1.049c0.463,0.458,0.832,1.027,1.097,1.689
				c0.261,0.656,0.393,1.41,0.393,2.24c0,0.945-0.164,1.799-0.488,2.539c-0.312,0.713-0.729,1.362-1.24,1.932
				c-0.488,0.545-1.057,1.051-1.691,1.504c-0.588,0.42-1.189,0.832-1.804,1.236c-0.592,0.391-1.177,0.794-1.752,1.21
				c-0.53,0.383-1.014,0.816-1.439,1.288L378.37,224.178z M373.782,210.708c-0.426,0-0.834,0.075-1.212,0.223
				c-0.372,0.146-0.691,0.353-0.975,0.634c-0.278,0.275-0.505,0.629-0.673,1.051c-0.172,0.432-0.259,0.951-0.259,1.543
				c0,0.685,0.111,1.285,0.33,1.785c0.231,0.527,0.541,1.008,0.92,1.428c0.403,0.445,0.87,0.861,1.388,1.232
				c0.564,0.406,1.145,0.804,1.741,1.193c0.621,0.407,1.23,0.826,1.828,1.259c0.372,0.27,0.726,0.56,1.058,0.868
				c0.333-0.309,0.687-0.6,1.059-0.868c0.597-0.432,1.204-0.851,1.82-1.257c0.595-0.391,1.177-0.79,1.746-1.196
				c0.521-0.372,0.986-0.785,1.383-1.228c0.377-0.422,0.687-0.902,0.918-1.432c0.219-0.5,0.33-1.102,0.33-1.785
				c0-0.592-0.087-1.111-0.26-1.543c-0.168-0.422-0.395-0.775-0.673-1.052c-0.283-0.28-0.602-0.487-0.975-0.633
				c-0.778-0.305-1.729-0.27-2.38-0.073c-0.335,0.1-0.632,0.232-0.885,0.393c-0.26,0.168-0.494,0.361-0.693,0.574
				c-0.221,0.238-0.419,0.485-0.588,0.736l-0.279,0.414h-0.989l-0.325-0.4c-0.18-0.258-0.385-0.51-0.609-0.75
				c-0.199-0.213-0.433-0.406-0.693-0.574c-0.252-0.16-0.549-0.293-0.884-0.393C374.62,210.758,374.227,210.708,373.782,210.708z"/>
		</g>
	</g>
	<g>
		<path fill="#5F5F5D" d="M629.607,238.902c-62.529,0-113.402-50.873-113.402-113.402c0-62.53,50.873-113.402,113.402-113.402
			c62.531,0,113.402,50.872,113.402,113.402C743.009,188.029,692.138,238.902,629.607,238.902z M629.607,13.988
			c-61.488,0-111.514,50.024-111.514,111.512s50.025,111.512,111.514,111.512S741.121,186.988,741.121,125.5
			S691.095,13.988,629.607,13.988z"/>
		<path fill="#5F5F5D" d="M638.341,217.076l-0.178-1.881c46.484-4.383,81.539-42.943,81.539-89.695
			c0-10.966-1.949-21.682-5.793-31.848l1.768-0.668c3.924,10.381,5.914,21.321,5.914,32.516c0,23.047-8.563,45.096-24.109,62.084
			C682.033,204.463,661.031,214.938,638.341,217.076z"/>
		<path fill="#5F5F5D" d="M622.148,217.185c-22.969-1.843-44.279-12.196-60.004-29.155c-15.811-17.052-24.518-39.258-24.518-62.529
			c0-10.563,1.775-20.92,5.279-30.782l1.779,0.632c-3.432,9.659-5.17,19.803-5.17,30.15c0,46.633,36.363,86.078,82.783,89.802
			L622.148,217.185z"/>
		<path fill="#5F5F5D" d="M631.296,196.04c-0.512,0-0.932-0.409-0.943-0.923c-0.012-0.521,0.4-0.954,0.922-0.967l0.375-0.01
			c0.523,0.004,0.955,0.397,0.969,0.92c0.014,0.521-0.396,0.955-0.918,0.969l-0.383,0.01
			C631.312,196.039,631.304,196.04,631.296,196.04z M623.75,195.816c-0.025,0-0.051-0.001-0.076-0.003l-0.385-0.032
			c-0.52-0.047-0.902-0.506-0.855-1.025s0.494-0.899,1.025-0.857l0.367,0.032c0.52,0.042,0.906,0.498,0.865,1.019
			C624.65,195.442,624.238,195.816,623.75,195.816z M639.199,195.405c-0.465,0-0.871-0.343-0.936-0.817
			c-0.07-0.516,0.291-0.992,0.809-1.063l0.365-0.052c0.52-0.078,0.996,0.283,1.07,0.799c0.076,0.516-0.281,0.996-0.799,1.07
			l-0.381,0.055C639.285,195.402,639.24,195.405,639.199,195.405z M615.9,194.711c-0.061,0-0.123-0.006-0.186-0.018l-0.375-0.076
			c-0.512-0.105-0.84-0.605-0.734-1.117c0.104-0.511,0.604-0.841,1.115-0.734l0.365,0.074c0.512,0.104,0.842,0.602,0.74,1.113
			C616.736,194.401,616.341,194.711,615.9,194.711z M646.976,193.876c-0.42,0-0.805-0.284-0.914-0.71
			c-0.129-0.506,0.176-1.021,0.682-1.15l0.359-0.093c0.504-0.134,1.021,0.167,1.154,0.672s-0.168,1.021-0.672,1.154l-0.373,0.097
			C647.132,193.866,647.054,193.876,646.976,193.876z M608.226,192.716c-0.096,0-0.193-0.015-0.291-0.046l-0.361-0.118
			c-0.496-0.163-0.766-0.696-0.604-1.192c0.164-0.495,0.699-0.766,1.191-0.603l0.355,0.116c0.496,0.16,0.77,0.692,0.607,1.189
			C608.996,192.461,608.625,192.716,608.226,192.716z M654.535,191.466c-0.381,0-0.738-0.23-0.883-0.606
			c-0.188-0.486,0.057-1.033,0.543-1.221l0.352-0.135c0.486-0.189,1.033,0.052,1.223,0.539c0.189,0.485-0.053,1.033-0.539,1.222
			l-0.357,0.138C654.761,191.445,654.648,191.466,654.535,191.466z M600.832,189.854c-0.129,0-0.262-0.027-0.389-0.084l-0.348-0.16
			c-0.475-0.218-0.682-0.779-0.463-1.253c0.219-0.472,0.779-0.681,1.254-0.462l0.336,0.154c0.477,0.215,0.686,0.775,0.471,1.25
			C601.535,189.647,601.193,189.854,600.832,189.854z M661.765,188.205c-0.34,0-0.67-0.185-0.838-0.508
			c-0.242-0.462-0.063-1.033,0.4-1.273l0.33-0.174c0.459-0.244,1.033-0.069,1.275,0.392c0.246,0.461,0.07,1.032-0.391,1.277
			l-0.342,0.179C662.062,188.171,661.914,188.205,661.765,188.205z M593.818,186.168c-0.164,0-0.33-0.043-0.482-0.133l-0.332-0.199
			c-0.445-0.271-0.586-0.854-0.314-1.299c0.27-0.445,0.852-0.588,1.297-0.314l0.314,0.189c0.449,0.266,0.596,0.846,0.33,1.295
			C594.455,186.004,594.14,186.168,593.818,186.168z M668.578,184.143c-0.303,0-0.602-0.146-0.783-0.415
			c-0.293-0.432-0.18-1.019,0.252-1.312l0.307-0.209c0.43-0.297,1.018-0.188,1.314,0.242c0.295,0.43,0.188,1.018-0.242,1.313
			l-0.318,0.218C668.943,184.09,668.759,184.143,668.578,184.143z M587.265,181.709c-0.201,0-0.404-0.064-0.576-0.196l-0.301-0.232
			c-0.412-0.319-0.488-0.913-0.168-1.325c0.318-0.412,0.912-0.486,1.324-0.168l0.297,0.229c0.414,0.318,0.49,0.911,0.174,1.324
			C587.828,181.582,587.548,181.709,587.265,181.709z M674.88,179.332c-0.266,0-0.531-0.111-0.717-0.33
			c-0.34-0.396-0.295-0.992,0.102-1.332l0.279-0.24c0.391-0.343,0.988-0.305,1.332,0.088s0.305,0.99-0.088,1.334l-0.295,0.254
			C675.316,179.258,675.097,179.332,674.88,179.332z M581.259,176.534c-0.234,0-0.469-0.087-0.65-0.261l-0.281-0.271
			c-0.373-0.365-0.379-0.963-0.014-1.336c0.363-0.374,0.961-0.38,1.334-0.016l0.264,0.255c0.377,0.36,0.393,0.958,0.033,1.335
			C581.757,176.436,581.509,176.534,581.259,176.534z M680.599,173.841c-0.23,0-0.463-0.084-0.645-0.253
			c-0.381-0.355-0.402-0.953-0.047-1.336l0.248-0.269c0.352-0.386,0.951-0.413,1.334-0.063c0.387,0.352,0.414,0.949,0.063,1.335
			l-0.262,0.284C681.103,173.74,680.851,173.841,680.599,173.841z M575.878,170.713c-0.273,0-0.543-0.117-0.73-0.344l-0.242-0.294
			c-0.33-0.403-0.271-0.999,0.133-1.329c0.404-0.331,0.998-0.271,1.328,0.131l0.238,0.291c0.332,0.402,0.275,0.998-0.127,1.33
			C576.302,170.643,576.089,170.713,575.878,170.713z M685.66,167.739c-0.195,0-0.391-0.06-0.559-0.184
			c-0.42-0.309-0.512-0.899-0.203-1.32l0.223-0.304c0.311-0.42,0.902-0.512,1.32-0.202c0.422,0.309,0.512,0.899,0.203,1.32
			l-0.223,0.304C686.236,167.605,685.951,167.739,685.66,167.739z M571.187,164.319c-0.311,0-0.615-0.153-0.795-0.433l-0.205-0.318
			c-0.283-0.438-0.156-1.022,0.281-1.306s1.023-0.156,1.307,0.282l0.205,0.317c0.281,0.438,0.156,1.022-0.283,1.306
			C571.539,164.271,571.363,164.319,571.187,164.319z M689.996,161.104c-0.158,0-0.32-0.04-0.469-0.126
			c-0.453-0.26-0.609-0.836-0.35-1.289l0.184-0.32c0.256-0.454,0.83-0.617,1.285-0.359c0.455,0.256,0.617,0.831,0.361,1.285
			l-0.191,0.335C690.642,160.934,690.324,161.104,689.996,161.104z M567.251,157.434c-0.346,0-0.68-0.191-0.844-0.521l-0.172-0.347
			c-0.23-0.468-0.037-1.034,0.43-1.265c0.473-0.231,1.035-0.037,1.266,0.432l0.164,0.332c0.234,0.467,0.045,1.033-0.42,1.268
			C567.539,157.4,567.394,157.434,567.251,157.434z M693.548,154.021c-0.125,0-0.252-0.025-0.375-0.078
			c-0.479-0.207-0.699-0.764-0.492-1.242l0.146-0.34c0.203-0.48,0.758-0.707,1.238-0.5c0.48,0.203,0.705,0.758,0.502,1.238
			l-0.152,0.352C694.261,153.808,693.914,154.021,693.548,154.021z M564.128,150.143c-0.387,0-0.748-0.238-0.887-0.623l-0.131-0.365
			c-0.174-0.492,0.084-1.031,0.576-1.204c0.492-0.175,1.031,0.085,1.205,0.577l0.125,0.349c0.178,0.491-0.076,1.032-0.566,1.21
			C564.345,150.125,564.236,150.143,564.128,150.143z M696.267,146.575c-0.09,0-0.18-0.013-0.271-0.04
			c-0.498-0.149-0.783-0.676-0.633-1.176l0.107-0.361c0.15-0.498,0.67-0.783,1.176-0.635c0.5,0.148,0.785,0.675,0.635,1.175
			l-0.107,0.363C697.05,146.311,696.675,146.575,696.267,146.575z M561.861,142.541c-0.426,0-0.814-0.291-0.918-0.725l-0.086-0.375
			c-0.119-0.508,0.199-1.016,0.707-1.133c0.506-0.12,1.016,0.199,1.133,0.707l0.084,0.361c0.121,0.507-0.191,1.017-0.699,1.139
			C562.007,142.533,561.935,142.541,561.861,142.541z M698.119,138.866c-0.055,0-0.111-0.005-0.168-0.015
			c-0.514-0.094-0.855-0.585-0.762-1.099l0.064-0.364c0.088-0.515,0.576-0.859,1.092-0.77c0.514,0.088,0.859,0.577,0.77,1.092
			l-0.066,0.379C698.964,138.546,698.568,138.866,698.119,138.866z M560.48,134.734c-0.473,0-0.881-0.354-0.938-0.834l-0.043-0.375
			c-0.061-0.519,0.311-0.988,0.828-1.049c0.533-0.061,0.986,0.311,1.049,0.828l0.043,0.375c0.061,0.519-0.311,0.988-0.828,1.049
			C560.554,134.732,560.517,134.734,560.48,134.734z M699.078,130.997c-0.02,0-0.041-0.001-0.061-0.002
			c-0.52-0.032-0.916-0.481-0.883-1.001l0.023-0.377c0.031-0.521,0.467-0.908,1-0.885c0.521,0.031,0.916,0.48,0.885,1l-0.023,0.379
			C699.988,130.611,699.572,130.997,699.078,130.997z M559.994,126.822c-0.52,0-0.941-0.418-0.945-0.937V125.5
			c0-0.146,0.031-0.284,0.092-0.407c-0.057-0.123-0.088-0.26-0.088-0.404l0.006-0.384c0.006-0.521,0.465-0.946,0.959-0.93
			c0.521,0.008,0.938,0.438,0.93,0.959l-0.006,0.37c0,0.143-0.033,0.278-0.092,0.399c0.057,0.121,0.088,0.255,0.088,0.396v0.371
			c0.004,0.522-0.414,0.948-0.938,0.952C559.998,126.822,559.996,126.822,559.994,126.822z M699.142,123.069
			c-0.502,0-0.92-0.395-0.943-0.901l-0.018-0.369c-0.029-0.521,0.371-0.966,0.891-0.995c0.525-0.021,0.967,0.371,0.996,0.892
			l0.018,0.385c0.025,0.521-0.377,0.963-0.898,0.987C699.171,123.068,699.156,123.069,699.142,123.069z M560.533,117.734
			c-0.039,0-0.078-0.002-0.117-0.007c-0.518-0.065-0.885-0.537-0.82-1.055l0.049-0.382c0.068-0.516,0.539-0.877,1.061-0.812
			c0.518,0.069,0.881,0.544,0.813,1.061l-0.047,0.368C561.41,117.384,561.003,117.734,560.533,117.734z M698.316,115.184
			c-0.455,0-0.855-0.329-0.932-0.792l-0.061-0.372c-0.086-0.515,0.262-1.001,0.777-1.086c0.523-0.083,1,0.264,1.086,0.778
			l0.061,0.374c0.086,0.515-0.264,1-0.777,1.085C698.417,115.18,698.367,115.184,698.316,115.184z M561.962,109.937
			c-0.072,0-0.146-0.008-0.221-0.026c-0.508-0.121-0.82-0.63-0.699-1.138l0.092-0.376c0.125-0.505,0.641-0.812,1.145-0.689
			c0.506,0.126,0.814,0.638,0.689,1.145l-0.088,0.358C562.777,109.645,562.388,109.937,561.962,109.937z M696.599,107.445
			c-0.414,0-0.793-0.272-0.91-0.688l-0.102-0.356c-0.145-0.501,0.143-1.025,0.645-1.17c0.504-0.144,1.025,0.144,1.17,0.644
			l0.105,0.37c0.143,0.502-0.15,1.024-0.652,1.166C696.769,107.434,696.683,107.445,696.599,107.445z M564.273,102.353
			c-0.109,0-0.221-0.019-0.328-0.06c-0.49-0.182-0.738-0.726-0.557-1.214l0.133-0.355c0.182-0.489,0.73-0.737,1.215-0.554
			c0.488,0.183,0.736,0.727,0.555,1.215l-0.131,0.353C565.017,102.117,564.656,102.353,564.273,102.353z M694.005,99.951
			c-0.371,0-0.725-0.221-0.875-0.586l-0.143-0.344c-0.201-0.481,0.025-1.035,0.508-1.236c0.479-0.2,1.033,0.025,1.234,0.507
			l0.148,0.356c0.199,0.483-0.033,1.035-0.516,1.232C694.246,99.928,694.125,99.951,694.005,99.951z M567.437,95.083
			c-0.145,0-0.289-0.033-0.426-0.102c-0.467-0.236-0.652-0.804-0.416-1.27l0.174-0.341c0.238-0.463,0.807-0.647,1.271-0.407
			c0.465,0.239,0.646,0.809,0.408,1.272l-0.168,0.33C568.113,94.894,567.781,95.083,567.437,95.083z M690.57,92.802
			c-0.332,0-0.652-0.175-0.826-0.485l-0.184-0.331c-0.254-0.456-0.092-1.031,0.365-1.285c0.455-0.254,1.031-0.09,1.285,0.365
			l0.184,0.331c0.254,0.456,0.092,1.031-0.365,1.285C690.884,92.763,690.726,92.802,690.57,92.802z M571.41,88.226
			c-0.178,0-0.359-0.051-0.52-0.157c-0.436-0.288-0.555-0.874-0.268-1.309l0.209-0.316c0.289-0.436,0.875-0.553,1.311-0.265
			c0.434,0.289,0.553,0.875,0.264,1.31l-0.207,0.313C572.017,88.077,571.716,88.226,571.41,88.226z M686.343,86.091
			c-0.295,0-0.584-0.138-0.77-0.396l-0.217-0.303c-0.307-0.422-0.211-1.013,0.211-1.319c0.424-0.308,1.012-0.211,1.32,0.211
			l0.223,0.313c0.305,0.424,0.205,1.014-0.219,1.317C686.726,86.034,686.533,86.091,686.343,86.091z M576.136,81.862
			c-0.211,0-0.426-0.071-0.602-0.217c-0.4-0.333-0.457-0.928-0.125-1.33l0.248-0.295c0.336-0.398,0.932-0.45,1.33-0.113
			c0.4,0.336,0.451,0.932,0.115,1.331l-0.238,0.283C576.679,81.746,576.41,81.862,576.136,81.862z M681.382,79.905
			c-0.258,0-0.516-0.106-0.703-0.314l-0.248-0.274c-0.352-0.386-0.324-0.983,0.063-1.334c0.383-0.351,0.982-0.324,1.334,0.062
			l0.258,0.286c0.35,0.389,0.316,0.986-0.072,1.334C681.833,79.825,681.607,79.905,681.382,79.905z M581.554,76.073
			c-0.246,0-0.492-0.097-0.678-0.288c-0.363-0.375-0.354-0.973,0.021-1.335l0.283-0.27c0.379-0.356,0.977-0.34,1.334,0.041
			c0.357,0.38,0.34,0.978-0.039,1.335l-0.264,0.251C582.029,75.985,581.791,76.073,581.554,76.073z M675.755,74.319
			c-0.223,0-0.447-0.079-0.627-0.239l-0.277-0.245c-0.393-0.344-0.434-0.94-0.088-1.333c0.344-0.393,0.939-0.432,1.332-0.088
			l0.289,0.254c0.389,0.347,0.424,0.944,0.076,1.334C676.275,74.212,676.015,74.319,675.755,74.319z M587.593,70.933
			c-0.287,0-0.568-0.129-0.754-0.375c-0.316-0.416-0.234-1.008,0.182-1.323l0.305-0.229c0.42-0.313,1.01-0.229,1.322,0.187
			c0.314,0.417,0.23,1.009-0.186,1.323l-0.301,0.226C587.992,70.871,587.791,70.933,587.593,70.933z M669.533,69.407
			c-0.188,0-0.379-0.056-0.543-0.173l-0.303-0.209c-0.43-0.296-0.537-0.884-0.242-1.313c0.297-0.429,0.883-0.539,1.314-0.242
			l0.318,0.221c0.426,0.3,0.527,0.89,0.229,1.316C670.121,69.267,669.83,69.407,669.533,69.407z M594.173,66.51
			c-0.322,0-0.637-0.165-0.813-0.462c-0.266-0.449-0.119-1.028,0.33-1.295l0.332-0.196c0.449-0.263,1.027-0.112,1.291,0.338
			c0.264,0.451,0.111,1.029-0.338,1.292l-0.32,0.189C594.503,66.467,594.337,66.51,594.173,66.51z M662.794,65.233
			c-0.152,0-0.307-0.037-0.449-0.115l-0.324-0.174c-0.461-0.245-0.637-0.816-0.391-1.277c0.242-0.461,0.816-0.635,1.275-0.392
			l0.342,0.184c0.459,0.25,0.627,0.823,0.379,1.281C663.455,65.054,663.13,65.233,662.794,65.233z M601.218,62.863
			c-0.361,0-0.705-0.208-0.863-0.558c-0.213-0.476-0.002-1.035,0.475-1.249l0.352-0.156c0.479-0.211,1.035,0.006,1.246,0.483
			c0.211,0.478-0.006,1.035-0.484,1.245l-0.34,0.151C601.478,62.836,601.347,62.863,601.218,62.863z M655.628,61.854
			c-0.117,0-0.236-0.022-0.352-0.068l-0.35-0.14c-0.484-0.193-0.721-0.743-0.527-1.228c0.193-0.485,0.744-0.721,1.229-0.527
			l0.35,0.141c0.484,0.194,0.721,0.743,0.527,1.228C656.357,61.63,656.003,61.854,655.628,61.854z M608.63,60.045
			c-0.402,0-0.773-0.257-0.9-0.659c-0.158-0.498,0.117-1.028,0.615-1.186l0.367-0.115c0.5-0.156,1.027,0.124,1.182,0.622
			c0.154,0.499-0.123,1.028-0.621,1.182l-0.357,0.112C608.82,60.031,608.724,60.045,608.63,60.045z M648.117,59.316
			c-0.082,0-0.166-0.011-0.25-0.034l-0.359-0.098c-0.504-0.135-0.803-0.653-0.668-1.157c0.137-0.503,0.66-0.803,1.156-0.668
			l0.371,0.101c0.502,0.138,0.799,0.658,0.66,1.161C648.912,59.041,648.531,59.316,648.117,59.316z M616.316,58.097
			c-0.443,0-0.84-0.313-0.926-0.765c-0.1-0.512,0.234-1.008,0.746-1.107l0.375-0.072c0.521-0.1,1.008,0.241,1.104,0.753
			c0.098,0.513-0.238,1.006-0.752,1.104l-0.365,0.07C616.435,58.091,616.375,58.097,616.316,58.097z M640.367,57.656
			c-0.049,0-0.098-0.004-0.146-0.012l-0.365-0.056c-0.516-0.077-0.873-0.557-0.797-1.073c0.078-0.516,0.557-0.871,1.074-0.796
			l0.381,0.059c0.516,0.081,0.867,0.565,0.785,1.08C641.226,57.323,640.824,57.656,640.367,57.656z M624.171,57.039
			c-0.488,0-0.902-0.376-0.939-0.871c-0.041-0.52,0.348-0.975,0.867-1.016l0.385-0.028c0.514-0.044,0.971,0.355,1.008,0.876
			c0.037,0.521-0.355,0.972-0.877,1.008l-0.369,0.027C624.222,57.038,624.197,57.039,624.171,57.039z M632.476,56.888
			c-0.012,0-0.025,0-0.037-0.001l-0.373-0.014c-0.521-0.018-0.928-0.456-0.91-0.977c0.018-0.522,0.459-0.938,0.977-0.911
			l0.381,0.014c0.521,0.021,0.926,0.459,0.906,0.981C633.4,56.488,632.98,56.888,632.476,56.888z"/>
		<g>
			<path fill="#5F5F5D" d="M558.755,78.072c0.66,0.38,1.18,0.85,1.557,1.409c0.379,0.559,0.619,1.172,0.719,1.841
				s0.063,1.374-0.113,2.116c-0.178,0.743-0.482,1.491-0.918,2.246c-0.629,1.092-1.316,1.961-2.066,2.607
				c-0.75,0.646-1.672,1.111-2.77,1.395l-0.598-2.283c0.828-0.223,1.512-0.574,2.049-1.056c0.537-0.48,1.02-1.092,1.447-1.833
				c0.543-0.944,0.771-1.786,0.686-2.526c-0.084-0.74-0.477-1.313-1.18-1.717c-0.658-0.38-1.268-0.479-1.822-0.295
				c-0.283,0.088-0.527,0.216-0.732,0.385c-0.207,0.169-0.467,0.451-0.783,0.843l-1.221,1.559c-0.836,1.081-1.744,1.769-2.725,2.067
				c-1.064,0.321-2.184,0.143-3.357-0.532c-0.619-0.357-1.125-0.797-1.516-1.318c-0.393-0.521-0.656-1.096-0.797-1.725
				c-0.143-0.629-0.143-1.298-0.002-2.008c0.139-0.71,0.426-1.442,0.859-2.197c0.551-0.958,1.158-1.713,1.818-2.267
				c0.66-0.553,1.459-0.973,2.395-1.26l0.572,2.188c-0.688,0.196-1.258,0.51-1.713,0.939c-0.453,0.43-0.855,0.949-1.205,1.555
				c-0.488,0.85-0.65,1.623-0.486,2.319c0.164,0.696,0.57,1.231,1.217,1.603c0.271,0.156,0.541,0.254,0.814,0.294
				c0.273,0.041,0.551,0.017,0.836-0.071c0.553-0.183,1.086-0.594,1.6-1.233l1.186-1.498c0.496-0.612,0.943-1.072,1.346-1.379
				c0.402-0.308,0.828-0.539,1.275-0.694c0.576-0.188,1.168-0.237,1.781-0.146C557.519,77.49,558.134,77.715,558.755,78.072z"/>
			<path fill="#5F5F5D" d="M557.742,63.821l11.021,9.197l-1.615,1.936l-11.02-9.198l-2.934,3.512l-1.736-1.451l7.477-8.959
				l1.738,1.45L557.742,63.821z"/>
			<path fill="#5F5F5D" d="M580.65,57.524c0.217,0.74,0.275,1.472,0.176,2.198c-0.096,0.726-0.338,1.429-0.725,2.11
				c-0.387,0.682-0.904,1.289-1.553,1.823c-0.648,0.535-1.344,0.926-2.086,1.176c-0.742,0.249-1.477,0.349-2.201,0.301
				c-0.725-0.047-1.428-0.248-2.113-0.602s-1.299-0.86-1.844-1.521l-7.006-8.501l1.945-1.604l6.932,8.412
				c0.713,0.865,1.512,1.345,2.396,1.441c0.887,0.097,1.732-0.187,2.537-0.85c0.805-0.662,1.248-1.44,1.328-2.334
				c0.08-0.893-0.236-1.771-0.947-2.636l-6.932-8.412l1.945-1.603l7.006,8.502C580.052,56.085,580.433,56.785,580.65,57.524z"/>
			<path fill="#5F5F5D" d="M593.289,44.291c0.285,0.536,0.57,1.08,0.857,1.633c0.285,0.553,0.525,1.112,0.721,1.678
				c0.195,0.565,0.32,1.144,0.369,1.733c0.051,0.591-0.018,1.191-0.203,1.801c-0.217,0.716-0.59,1.359-1.113,1.93
				c-0.525,0.57-1.172,1.061-1.941,1.47l-5.148,2.745l-7.816-14.666l5.148-2.745c0.77-0.409,1.539-0.673,2.305-0.791
				c0.766-0.117,1.506-0.067,2.221,0.151c0.611,0.187,1.143,0.455,1.594,0.805s0.852,0.754,1.201,1.211
				c0.35,0.458,0.666,0.945,0.951,1.463C592.718,43.229,593.003,43.756,593.289,44.291z M591.064,45.477
				c-0.541-1.017-1.031-1.853-1.469-2.51c-0.439-0.656-0.965-1.095-1.576-1.316c-0.955-0.337-1.961-0.224-3.018,0.34l-2.697,1.438
				l5.684,10.669l2.699-1.438c1.057-0.563,1.713-1.335,1.965-2.316c0.158-0.63,0.068-1.345-0.27-2.144
				C592.046,47.4,591.605,46.492,591.064,45.477z"/>
			<path fill="#5F5F5D" d="M601.349,50.308l-5.6-15.646l2.373-0.849l5.6,15.645L601.349,50.308z"/>
			<path fill="#5F5F5D" d="M617.873,37.442c0.156,0.777,0.293,1.484,0.406,2.12s0.176,1.222,0.191,1.759
				c0.014,0.537-0.041,1.048-0.166,1.534c-0.123,0.486-0.344,0.967-0.658,1.444c-0.449,0.679-1.004,1.239-1.658,1.683
				c-0.658,0.443-1.42,0.753-2.289,0.929c-0.869,0.177-1.689,0.188-2.457,0.035c-0.77-0.153-1.494-0.454-2.172-0.904
				c-0.479-0.316-0.869-0.673-1.172-1.072s-0.557-0.847-0.762-1.346c-0.203-0.498-0.379-1.063-0.523-1.692
				c-0.143-0.63-0.293-1.333-0.451-2.111s-0.295-1.484-0.408-2.121c-0.113-0.636-0.172-1.223-0.178-1.762
				c-0.008-0.538,0.053-1.05,0.176-1.536c0.123-0.485,0.342-0.967,0.658-1.443c0.449-0.679,0.998-1.239,1.646-1.681
				c0.65-0.442,1.408-0.751,2.277-0.928c0.869-0.176,1.693-0.188,2.471-0.037c0.775,0.152,1.504,0.453,2.182,0.902
				c0.479,0.316,0.869,0.673,1.172,1.072c0.303,0.399,0.553,0.849,0.75,1.348c0.197,0.5,0.367,1.065,0.512,1.694
				C617.562,35.961,617.714,36.665,617.873,37.442z M615.402,37.944c-0.168-0.823-0.318-1.503-0.451-2.041
				c-0.131-0.536-0.271-0.984-0.416-1.344s-0.307-0.652-0.486-0.878c-0.182-0.225-0.395-0.424-0.635-0.597
				c-0.352-0.247-0.756-0.419-1.211-0.517c-0.459-0.098-0.93-0.097-1.418,0.002c-0.488,0.099-0.922,0.283-1.305,0.551
				s-0.688,0.584-0.916,0.948c-0.154,0.255-0.271,0.521-0.348,0.798c-0.08,0.278-0.115,0.61-0.107,0.998
				c0.006,0.388,0.055,0.854,0.141,1.4c0.088,0.546,0.215,1.231,0.383,2.054c0.166,0.824,0.316,1.504,0.449,2.041
				s0.271,0.985,0.416,1.344c0.145,0.36,0.309,0.652,0.488,0.878c0.18,0.225,0.391,0.424,0.633,0.597
				c0.352,0.247,0.756,0.419,1.213,0.517s0.928,0.098,1.416-0.002c0.488-0.099,0.922-0.283,1.305-0.551s0.688-0.584,0.916-0.949
				c0.154-0.253,0.271-0.519,0.35-0.797c0.078-0.278,0.115-0.61,0.107-0.998s-0.055-0.854-0.143-1.401
				C615.697,39.452,615.568,38.767,615.402,37.944z"/>
			<path fill="#5F5F5D" d="M640.808,40.973c-0.049,0.761-0.242,1.435-0.576,2.021s-0.779,1.072-1.334,1.457
				c-0.555,0.384-1.205,0.662-1.949,0.833c-0.744,0.169-1.551,0.227-2.42,0.169c-1.258-0.082-2.342-0.316-3.252-0.703
				s-1.736-1.009-2.475-1.868l1.783-1.545c0.566,0.645,1.184,1.103,1.854,1.372c0.668,0.27,1.43,0.432,2.283,0.488
				c1.086,0.07,1.943-0.096,2.57-0.5s0.967-1.009,1.02-1.816c0.049-0.761-0.133-1.35-0.541-1.767
				c-0.205-0.216-0.428-0.378-0.67-0.488c-0.242-0.109-0.609-0.218-1.102-0.329l-1.938-0.407c-1.34-0.274-2.359-0.785-3.059-1.533
				c-0.758-0.813-1.094-1.895-1.006-3.246c0.047-0.713,0.219-1.361,0.514-1.943c0.295-0.581,0.691-1.074,1.195-1.477
				c0.502-0.404,1.102-0.701,1.801-0.889c0.697-0.188,1.48-0.255,2.35-0.198c1.104,0.072,2.049,0.281,2.838,0.629
				c0.787,0.348,1.518,0.879,2.188,1.593l-1.709,1.479c-0.48-0.531-1.014-0.904-1.6-1.122c-0.586-0.217-1.229-0.349-1.928-0.395
				c-0.979-0.063-1.744,0.132-2.295,0.588c-0.553,0.455-0.854,1.056-0.902,1.801c-0.02,0.311,0.014,0.598,0.098,0.859
				c0.084,0.264,0.229,0.503,0.432,0.719c0.41,0.417,1.016,0.713,1.814,0.89l1.867,0.402c0.77,0.175,1.379,0.374,1.832,0.599
				s0.85,0.503,1.186,0.837c0.424,0.434,0.73,0.944,0.918,1.533S640.855,40.259,640.808,40.973z"/>
			<path fill="#5F5F5D" d="M657.341,41.106c-0.195,0.769-0.383,1.463-0.557,2.085c-0.178,0.621-0.375,1.178-0.598,1.667
				c-0.221,0.489-0.494,0.925-0.816,1.308c-0.324,0.383-0.732,0.72-1.225,1.011c-0.701,0.415-1.443,0.678-2.227,0.79
				c-0.785,0.112-1.605,0.058-2.465-0.163c-0.859-0.221-1.602-0.568-2.227-1.042s-1.145-1.061-1.561-1.762
				c-0.291-0.492-0.486-0.984-0.584-1.476c-0.1-0.491-0.131-1.005-0.098-1.543c0.033-0.537,0.123-1.121,0.268-1.75
				c0.146-0.629,0.318-1.329,0.514-2.097c0.199-0.769,0.385-1.464,0.561-2.085c0.176-0.621,0.379-1.176,0.607-1.663
				c0.23-0.487,0.506-0.922,0.83-1.305c0.322-0.383,0.729-0.72,1.223-1.012c0.701-0.414,1.439-0.678,2.215-0.792
				c0.777-0.114,1.594-0.061,2.453,0.16c0.859,0.221,1.605,0.569,2.238,1.044s1.156,1.064,1.57,1.765
				c0.293,0.493,0.486,0.984,0.586,1.476c0.098,0.491,0.127,1.004,0.088,1.54c-0.043,0.536-0.135,1.119-0.281,1.748
				C657.71,39.639,657.541,40.337,657.341,41.106z M654.902,40.479c0.207-0.814,0.369-1.491,0.484-2.032s0.186-1.004,0.213-1.391
				s0.008-0.721-0.057-1.002c-0.064-0.282-0.166-0.553-0.309-0.814c-0.209-0.375-0.496-0.707-0.865-0.994
				c-0.367-0.287-0.793-0.493-1.275-0.616c-0.482-0.124-0.953-0.148-1.416-0.074c-0.459,0.075-0.873,0.226-1.236,0.454
				c-0.25,0.161-0.471,0.349-0.662,0.565c-0.193,0.215-0.369,0.5-0.531,0.851c-0.164,0.353-0.324,0.792-0.484,1.322
				s-0.344,1.201-0.553,2.015c-0.209,0.814-0.371,1.491-0.486,2.032s-0.186,1.004-0.213,1.391c-0.027,0.387-0.008,0.721,0.057,1.002
				c0.064,0.281,0.168,0.553,0.309,0.814c0.209,0.375,0.498,0.706,0.865,0.994c0.369,0.287,0.793,0.492,1.275,0.616
				s0.953,0.148,1.416,0.074c0.461-0.074,0.873-0.226,1.236-0.454c0.25-0.161,0.471-0.349,0.662-0.565
				c0.193-0.215,0.371-0.499,0.533-0.851c0.162-0.352,0.324-0.793,0.482-1.322C654.507,41.965,654.693,41.294,654.902,40.479z"/>
			<path fill="#5F5F5D" d="M670.644,52.556c-0.584,0.502-1.229,0.858-1.93,1.068c-0.701,0.209-1.441,0.279-2.223,0.208
				c-0.779-0.071-1.545-0.292-2.299-0.663s-1.398-0.843-1.932-1.417c-0.531-0.574-0.926-1.201-1.182-1.881s-0.361-1.405-0.322-2.174
				c0.041-0.769,0.25-1.538,0.627-2.306l4.861-9.885l2.262,1.112l-4.809,9.781c-0.496,1.005-0.604,1.931-0.326,2.778
				c0.277,0.847,0.883,1.5,1.818,1.961c0.936,0.459,1.826,0.542,2.674,0.248c0.848-0.294,1.518-0.944,2.012-1.95l4.809-9.781
				l2.264,1.111l-4.861,9.886C671.708,51.42,671.228,52.055,670.644,52.556z"/>
			<path fill="#5F5F5D" d="M681.607,64.135l1.006-13.953l-7.105,9.288l-2-1.531l10.094-13.201l1.836,1.403l-0.99,13.935l7.09-9.27
				l2.002,1.531l-10.094,13.2L681.607,64.135z"/>
			<path fill="#5F5F5D" d="M700.906,72.272c-0.459,0.396-0.928,0.793-1.402,1.194c-0.479,0.4-0.971,0.757-1.48,1.073
				c-0.508,0.314-1.045,0.562-1.611,0.74c-0.564,0.179-1.166,0.244-1.801,0.196c-0.746-0.056-1.455-0.277-2.127-0.664
				c-0.672-0.388-1.293-0.912-1.861-1.571l-3.805-4.423l12.596-10.84l3.805,4.422c0.568,0.66,0.994,1.351,1.277,2.073
				c0.281,0.722,0.395,1.456,0.34,2.202c-0.047,0.637-0.193,1.213-0.438,1.729c-0.242,0.518-0.549,0.997-0.916,1.438
				c-0.371,0.441-0.777,0.858-1.221,1.25C701.818,71.483,701.367,71.876,700.906,72.272z M699.263,70.362
				c0.873-0.751,1.582-1.413,2.125-1.984c0.545-0.572,0.859-1.18,0.941-1.825c0.119-1.006-0.213-1.963-0.994-2.872l-1.994-2.316
				l-9.164,7.886l1.994,2.317c0.783,0.908,1.68,1.378,2.691,1.41c0.65,0.016,1.328-0.229,2.033-0.733S698.39,71.113,699.263,70.362z
				"/>
			<path fill="#5F5F5D" d="M706.111,87.896c-0.66,0.381-1.328,0.594-2,0.641c-0.674,0.047-1.324-0.054-1.953-0.303
				c-0.627-0.249-1.219-0.636-1.771-1.161c-0.555-0.525-1.049-1.165-1.484-1.92c-0.629-1.092-1.035-2.124-1.217-3.096
				c-0.184-0.972-0.123-2.004,0.184-3.096l2.273,0.629c-0.223,0.829-0.262,1.597-0.115,2.302c0.146,0.706,0.434,1.429,0.861,2.171
				c0.543,0.944,1.156,1.564,1.84,1.862c0.684,0.297,1.375,0.245,2.076-0.159c0.66-0.381,1.051-0.856,1.17-1.429
				c0.066-0.29,0.078-0.565,0.037-0.828c-0.045-0.262-0.156-0.628-0.338-1.099l-0.736-1.838c-0.514-1.266-0.654-2.398-0.42-3.395
				c0.256-1.082,0.971-1.96,2.145-2.636c0.621-0.357,1.254-0.574,1.9-0.65c0.648-0.076,1.279-0.018,1.893,0.176
				c0.615,0.194,1.195,0.529,1.738,1.005c0.545,0.477,1.033,1.092,1.467,1.848c0.553,0.957,0.902,1.86,1.049,2.708
				c0.15,0.849,0.111,1.75-0.111,2.705l-2.18-0.604c0.178-0.693,0.191-1.345,0.047-1.953c-0.143-0.607-0.391-1.216-0.738-1.822
				c-0.49-0.85-1.078-1.378-1.762-1.584c-0.686-0.208-1.35-0.124-1.998,0.249c-0.27,0.155-0.49,0.341-0.662,0.557
				s-0.291,0.469-0.357,0.758c-0.121,0.572-0.033,1.239,0.264,2.003l0.701,1.778c0.279,0.736,0.453,1.355,0.518,1.857
				c0.063,0.501,0.051,0.984-0.041,1.45c-0.125,0.593-0.381,1.131-0.768,1.614S706.732,87.539,706.111,87.896z"/>
		</g>
		<g>
			<rect x="630.632" y="206.417" fill="#5F5F5D" width="1.889" height="16.53"/>
			<path fill="#5F5F5D" d="M625.291,227.71L625.291,227.71c-1.666-0.001-2.25-0.767-2.449-1.223c-0.662-1.54,1.203-4.2,3.695-5.274
				c0.799-0.345,1.625-0.52,2.455-0.52c1.596,0,2.959,0.67,3.391,1.668c0.201,0.469,0.361,1.439-0.836,2.678
				c-0.689,0.713-1.705,1.381-2.861,1.879C627.503,227.428,626.296,227.71,625.291,227.71z M624.589,225.71
				c0.084,0.04,0.289,0.11,0.701,0.11l0,0c0.744,0,1.709-0.232,2.646-0.637c1.869-0.807,2.686-1.851,2.697-2.13
				c-0.064-0.097-0.654-0.472-1.643-0.472c-0.563,0-1.154,0.127-1.707,0.365C625.63,223.661,624.63,225.173,624.589,225.71z"/>
			<rect x="630.574" y="205.473" fill="#5F5F5D" width="5.729" height="1.889"/>
			<rect x="630.574" y="208.602" fill="#5F5F5D" width="5.729" height="1.889"/>
		</g>
		<path fill="#5F5F5D" d="M621.638,149.672c-11.393,0-20.66-9.266-20.66-20.655c0-3.726,0.998-7.359,2.893-10.544
			c-1.508-2.676-2.457-5.668-2.775-8.731l-7.039-0.212l5.068-4.54l-3.861-6.238l8.234,2.16c0.324-0.421,0.674-0.821,1.043-1.193
			c4.75-4.748,12.471-4.746,17.215-0.002l34.482,34.481l-0.676,0.668c-6.141,6.07-23.787-0.078-32.982-9.272l1.336-1.336
			c8.619,8.62,23.971,13.585,29.576,9.866l-33.072-33.071c-4.006-4.007-10.529-4.008-14.541,0c-0.443,0.447-0.854,0.943-1.219,1.472
			l-0.375,0.547l-4.926-1.292l2.205,3.562l-2.727,2.442l4.018,0.121l0.055,0.858c0.209,3.255,1.203,6.45,2.871,9.239l0.299,0.499
			l-0.311,0.491c-1.898,2.998-2.902,6.464-2.902,10.025c0,10.348,8.422,18.767,18.771,18.767l45.482-0.029l-10.014-10.016
			l1.336-1.336l13.234,13.238L621.638,149.672z M612.501,108.73c-1.955,0-3.545-1.59-3.545-3.546s1.59-3.546,3.545-3.546
			c1.957,0,3.549,1.591,3.549,3.546S614.458,108.73,612.501,108.73z M612.501,103.527c-0.914,0-1.656,0.743-1.656,1.657
			s0.742,1.657,1.656,1.657c0.916,0,1.66-0.743,1.66-1.657S613.417,103.527,612.501,103.527z"/>
		<path fill="#5F5F5D" d="M610.22,121.879c-1.787,0-3.518-0.601-4.732-1.41c-0.666-0.445-1.461-1.15-1.461-1.983h1.889
			c0-0.107-0.029-0.167-0.029-0.168c0.316,0.629,3.512,2.471,6.338,1.292l0.727,1.744
			C612.068,121.722,611.136,121.879,610.22,121.879z"/>
		<path fill="#5F5F5D" d="M647.746,124.18l-1.334-1.337l0.75-0.75l0.205-0.071c7.844-2.73,9.973-7.439,10.539-9.51h-21.213
			l-0.539,0.54l-1.336-1.337l1.094-1.092h24.152l-0.072,1.013c-0.025,0.333-0.713,8.148-11.799,12.098L647.746,124.18z"/>
	</g>
	<g>
		<g>
			<path fill="#5F5F5D" d="M881.923,238.729c-62.434,0-113.227-50.792-113.227-113.224c0-62.433,50.793-113.226,113.227-113.226
				c62.432,0,113.225,50.792,113.225,113.226C995.148,187.937,944.355,238.729,881.923,238.729z M881.923,14.166
				c-61.393,0-111.34,49.946-111.34,111.339c0,61.392,49.947,111.337,111.34,111.337s111.338-49.945,111.338-111.337
				C993.261,64.112,943.316,14.166,881.923,14.166z"/>
			<path fill="#5F5F5D" d="M895.203,216.396l-0.271-1.867c43.865-6.357,76.941-44.63,76.941-89.024
				c0-4.503-0.336-9.041-0.998-13.488l1.865-0.278c0.676,4.54,1.02,9.171,1.02,13.767c0,22.212-8.031,43.648-22.617,60.362
				C936.699,202.418,916.832,213.261,895.203,216.396z"/>
			<path fill="#5F5F5D" d="M870.072,216.59c-45.604-5.877-79.992-45.035-79.992-91.085c0-5.251,0.445-8.896,1.266-13.784
				l1.859,0.313c-0.803,4.787-1.238,8.352-1.238,13.471c0,45.104,33.682,83.458,78.346,89.214L870.072,216.59z"/>
			<path fill="#5F5F5D" d="M883.607,195.939c-0.512,0-0.932-0.408-0.943-0.922c-0.012-0.521,0.4-0.953,0.922-0.965l0.373-0.01
				c0.496,0.011,0.953,0.396,0.967,0.917c0.016,0.521-0.395,0.954-0.916,0.969l-0.381,0.01
				C883.621,195.938,883.613,195.939,883.607,195.939z M876.072,195.716c-0.025,0-0.051-0.001-0.076-0.003l-0.385-0.033
				c-0.52-0.047-0.902-0.505-0.855-1.023c0.047-0.52,0.51-0.904,1.023-0.855l0.369,0.031c0.52,0.043,0.906,0.498,0.863,1.018
				C876.97,195.342,876.558,195.716,876.072,195.716z M891.496,195.305c-0.465,0-0.869-0.342-0.934-0.814
				c-0.07-0.517,0.291-0.992,0.807-1.063l0.369-0.052c0.518-0.071,0.994,0.286,1.066,0.802s-0.285,0.992-0.801,1.065l-0.379,0.054
				C891.58,195.303,891.537,195.305,891.496,195.305z M868.234,194.611c-0.061,0-0.123-0.006-0.186-0.019l-0.375-0.076
				c-0.512-0.105-0.84-0.604-0.734-1.114c0.105-0.511,0.602-0.84,1.115-0.733l0.361,0.073c0.512,0.102,0.844,0.598,0.742,1.109
				C869.068,194.3,868.675,194.611,868.234,194.611z M899.261,193.778c-0.42,0-0.803-0.283-0.912-0.71
				c-0.129-0.504,0.176-1.018,0.68-1.146l0.359-0.094c0.504-0.13,1.02,0.17,1.152,0.673c0.131,0.504-0.17,1.02-0.674,1.151
				l-0.369,0.096C899.417,193.769,899.339,193.778,899.261,193.778z M860.572,192.618c-0.096,0-0.193-0.015-0.289-0.046
				l-0.363-0.118c-0.496-0.162-0.766-0.694-0.604-1.19c0.164-0.495,0.695-0.766,1.191-0.602l0.352,0.115
				c0.496,0.158,0.77,0.689,0.611,1.186C861.341,192.363,860.97,192.618,860.572,192.618z M906.806,191.371
				c-0.379,0-0.736-0.229-0.881-0.604c-0.188-0.486,0.057-1.032,0.543-1.219l0.348-0.134c0.484-0.189,1.031,0.049,1.221,0.533
				c0.191,0.485-0.049,1.032-0.533,1.223l-0.359,0.139C907.033,191.352,906.917,191.371,906.806,191.371z M853.189,189.76
				c-0.131,0-0.262-0.026-0.389-0.084l-0.348-0.158c-0.473-0.219-0.68-0.779-0.461-1.252c0.219-0.472,0.775-0.681,1.25-0.461
				l0.336,0.153c0.475,0.215,0.686,0.773,0.471,1.248C853.89,189.555,853.548,189.76,853.189,189.76z M914.027,188.116
				c-0.34,0-0.668-0.185-0.836-0.507c-0.242-0.462-0.063-1.031,0.398-1.272l0.328-0.173c0.461-0.244,1.031-0.07,1.275,0.391
				s0.07,1.031-0.391,1.275l-0.34,0.179C914.324,188.082,914.173,188.116,914.027,188.116z M846.185,186.08
				c-0.164,0-0.332-0.044-0.484-0.135l-0.324-0.196c-0.445-0.27-0.588-0.849-0.318-1.295c0.268-0.446,0.846-0.589,1.295-0.319
				l0.318,0.193c0.447,0.268,0.592,0.847,0.324,1.293C846.818,185.916,846.505,186.08,846.185,186.08z M920.828,184.059
				c-0.303,0-0.6-0.145-0.783-0.414c-0.291-0.432-0.178-1.018,0.252-1.311l0.303-0.206c0.43-0.299,1.016-0.19,1.313,0.235
				c0.297,0.428,0.191,1.016-0.236,1.313l-0.32,0.22C921.193,184.006,921.009,184.059,920.828,184.059z M839.644,181.627
				c-0.199,0-0.402-0.064-0.572-0.195l-0.303-0.232c-0.412-0.319-0.488-0.912-0.17-1.324c0.318-0.411,0.91-0.488,1.324-0.168
				l0.295,0.227c0.412,0.316,0.492,0.908,0.176,1.322C840.208,181.498,839.927,181.627,839.644,181.627z M927.121,179.256
				c-0.266,0-0.529-0.111-0.715-0.33c-0.34-0.395-0.293-0.99,0.102-1.33l0.275-0.238c0.389-0.344,0.986-0.308,1.332,0.086
				c0.344,0.391,0.305,0.986-0.086,1.33l-0.293,0.255C927.556,179.182,927.339,179.256,927.121,179.256z M833.648,176.459
				c-0.234,0-0.471-0.088-0.654-0.264l-0.275-0.268c-0.373-0.364-0.379-0.961-0.014-1.334c0.363-0.373,0.959-0.379,1.332-0.015
				l0.266,0.257c0.375,0.361,0.387,0.959,0.025,1.334C834.142,176.362,833.896,176.459,833.648,176.459z M932.832,173.772
				c-0.232,0-0.463-0.085-0.645-0.255c-0.381-0.355-0.4-0.953-0.045-1.333l0.25-0.271c0.355-0.384,0.951-0.408,1.334-0.055
				c0.383,0.353,0.408,0.949,0.055,1.332l-0.262,0.282C933.333,173.672,933.083,173.772,932.832,173.772z M828.275,170.647
				c-0.273,0-0.543-0.117-0.729-0.344l-0.244-0.298c-0.328-0.404-0.266-0.998,0.139-1.326c0.406-0.33,1-0.266,1.326,0.139
				l0.234,0.286c0.33,0.401,0.273,0.996-0.129,1.327C828.697,170.576,828.486,170.647,828.275,170.647z M937.882,167.68
				c-0.193,0-0.389-0.059-0.559-0.183c-0.42-0.308-0.51-0.898-0.201-1.318l0.221-0.302c0.309-0.42,0.898-0.513,1.318-0.205
				c0.42,0.307,0.512,0.896,0.205,1.318l-0.225,0.305C938.458,167.547,938.171,167.68,937.882,167.68z M823.591,164.264
				c-0.309,0-0.611-0.152-0.791-0.43l-0.207-0.32c-0.283-0.438-0.156-1.021,0.281-1.303c0.438-0.283,1.021-0.157,1.305,0.281
				l0.203,0.314c0.283,0.438,0.158,1.021-0.279,1.305C823.945,164.215,823.767,164.264,823.591,164.264z M942.212,161.055
				c-0.16,0-0.32-0.04-0.469-0.125c-0.451-0.26-0.607-0.836-0.35-1.287l0.184-0.321c0.258-0.454,0.832-0.612,1.285-0.357
				c0.453,0.257,0.613,0.831,0.357,1.285l-0.189,0.333C942.857,160.885,942.539,161.055,942.212,161.055z M819.664,157.389
				c-0.346,0-0.68-0.191-0.844-0.521l-0.172-0.347c-0.23-0.467-0.037-1.032,0.43-1.262c0.469-0.229,1.033-0.036,1.264,0.43
				l0.164,0.332c0.232,0.466,0.045,1.032-0.42,1.266C819.949,157.355,819.804,157.389,819.664,157.389z M945.759,153.982
				c-0.125,0-0.252-0.024-0.375-0.078c-0.479-0.207-0.697-0.763-0.49-1.24l0.145-0.338c0.203-0.48,0.758-0.705,1.236-0.5
				c0.48,0.203,0.703,0.756,0.5,1.236l-0.15,0.353C946.47,153.771,946.125,153.982,945.759,153.982z M816.542,150.109
				c-0.385,0-0.748-0.238-0.887-0.623l-0.131-0.363c-0.172-0.492,0.086-1.03,0.576-1.203c0.488-0.174,1.029,0.083,1.203,0.576
				l0.125,0.348c0.178,0.49-0.076,1.031-0.564,1.209C816.757,150.091,816.65,150.109,816.542,150.109z M948.476,146.549
				c-0.09,0-0.182-0.013-0.271-0.039c-0.5-0.15-0.781-0.677-0.633-1.176l0.105-0.354c0.145-0.5,0.666-0.789,1.17-0.641
				c0.5,0.145,0.787,0.668,0.641,1.169l-0.109,0.368C949.255,146.285,948.88,146.549,948.476,146.549z M814.279,142.52
				c-0.426,0-0.813-0.291-0.916-0.723l-0.088-0.375c-0.117-0.508,0.199-1.015,0.707-1.132c0.506-0.118,1.014,0.199,1.131,0.706
				l0.084,0.359c0.121,0.508-0.191,1.016-0.697,1.138C814.425,142.512,814.351,142.52,814.279,142.52z M950.324,138.852
				c-0.057,0-0.113-0.004-0.17-0.016c-0.514-0.092-0.854-0.584-0.76-1.096l0.064-0.364c0.09-0.513,0.576-0.861,1.09-0.769
				c0.514,0.09,0.857,0.578,0.77,1.091l-0.068,0.38C951.167,138.533,950.771,138.852,950.324,138.852z M812.898,134.726
				c-0.471,0-0.879-0.354-0.936-0.833l-0.043-0.383c-0.057-0.518,0.316-0.982,0.834-1.039c0.525-0.063,0.984,0.316,1.041,0.834
				l0.041,0.367c0.061,0.518-0.309,0.986-0.826,1.047C812.972,134.723,812.935,134.726,812.898,134.726z M951.281,130.994
				c-0.02,0-0.041,0-0.061-0.002c-0.52-0.032-0.914-0.479-0.883-1l0.023-0.377c0.033-0.52,0.451-0.904,1-0.883
				c0.52,0.033,0.916,0.48,0.883,1l-0.023,0.377C952.189,130.609,951.775,130.994,951.281,130.994z M812.414,126.826
				c-0.518,0-0.939-0.418-0.943-0.937l-0.002-0.385c0-0.146,0.033-0.284,0.094-0.408c-0.059-0.123-0.09-0.26-0.088-0.405
				l0.004-0.384c0.01-0.521,0.434-0.949,0.959-0.928c0.52,0.008,0.936,0.437,0.928,0.958l-0.004,0.369
				c-0.002,0.144-0.035,0.279-0.094,0.4c0.057,0.121,0.088,0.255,0.088,0.397l0.002,0.37c0.004,0.521-0.416,0.946-0.936,0.95
				C812.417,126.826,812.416,126.826,812.414,126.826z M951.345,123.079c-0.5,0-0.918-0.394-0.941-0.899l-0.018-0.369
				c-0.029-0.52,0.369-0.965,0.889-0.993c0.527-0.03,0.965,0.371,0.994,0.891l0.02,0.384c0.023,0.521-0.379,0.962-0.898,0.986
				C951.375,123.079,951.359,123.079,951.345,123.079z M812.953,117.748c-0.039,0-0.078-0.002-0.117-0.007
				c-0.518-0.064-0.885-0.536-0.82-1.053l0.049-0.382c0.068-0.516,0.533-0.876,1.061-0.811c0.516,0.069,0.879,0.543,0.809,1.06
				l-0.047,0.367C813.828,117.398,813.421,117.748,812.953,117.748z M950.521,115.207c-0.453,0-0.854-0.328-0.93-0.79l-0.063-0.372
				c-0.084-0.514,0.264-1,0.777-1.084c0.523-0.085,1,0.263,1.084,0.777l0.063,0.372c0.084,0.514-0.264,1-0.777,1.084
				C950.623,115.203,950.572,115.207,950.521,115.207z M814.38,109.962c-0.074,0-0.148-0.008-0.221-0.026
				c-0.508-0.122-0.82-0.63-0.697-1.137l0.092-0.373c0.125-0.506,0.635-0.814,1.141-0.688s0.814,0.637,0.689,1.143l-0.088,0.359
				C815.193,109.672,814.806,109.962,814.38,109.962z M948.806,107.48c-0.412,0-0.789-0.271-0.906-0.687l-0.102-0.355
				c-0.146-0.5,0.141-1.024,0.641-1.169c0.5-0.148,1.023,0.142,1.17,0.641l0.105,0.371c0.141,0.501-0.15,1.022-0.652,1.164
				C948.978,107.468,948.89,107.48,948.806,107.48z M816.689,102.391c-0.109,0-0.221-0.019-0.33-0.06
				c-0.488-0.181-0.736-0.724-0.555-1.212l0.133-0.355c0.182-0.487,0.727-0.737,1.213-0.553c0.488,0.182,0.736,0.725,0.555,1.213
				l-0.133,0.352C817.431,102.156,817.072,102.391,816.689,102.391z M946.216,99.996c-0.371,0-0.723-0.221-0.873-0.585l-0.143-0.342
				c-0.201-0.48,0.023-1.033,0.504-1.235c0.48-0.2,1.033,0.024,1.234,0.504l0.15,0.357c0.197,0.482-0.033,1.033-0.516,1.23
				C946.457,99.973,946.335,99.996,946.216,99.996z M819.849,95.133c-0.145,0-0.289-0.033-0.426-0.102
				c-0.465-0.235-0.65-0.803-0.416-1.268l0.172-0.336c0.236-0.464,0.805-0.648,1.268-0.413c0.465,0.236,0.65,0.804,0.414,1.269
				l-0.17,0.333C820.525,94.944,820.193,95.133,819.849,95.133z M942.787,92.859c-0.332,0-0.656-0.177-0.828-0.49l-0.18-0.323
				c-0.254-0.455-0.092-1.029,0.363-1.284c0.453-0.254,1.029-0.093,1.283,0.362l0.188,0.338c0.25,0.457,0.084,1.03-0.373,1.28
				C943.095,92.821,942.941,92.859,942.787,92.859z M823.816,88.287c-0.18,0-0.359-0.051-0.52-0.156
				c-0.434-0.287-0.555-0.872-0.268-1.307l0.209-0.316c0.287-0.434,0.873-0.553,1.309-0.264c0.434,0.288,0.553,0.873,0.264,1.307
				l-0.207,0.312C824.421,88.138,824.123,88.287,823.816,88.287z M938.568,86.159c-0.295,0-0.584-0.138-0.77-0.395l-0.219-0.306
				c-0.303-0.423-0.205-1.012,0.217-1.316c0.422-0.305,1.014-0.207,1.316,0.216l0.221,0.309c0.303,0.424,0.205,1.013-0.219,1.316
				C938.949,86.102,938.757,86.159,938.568,86.159z M828.535,81.933c-0.213,0-0.426-0.072-0.604-0.219
				c-0.4-0.333-0.453-0.928-0.121-1.328l0.246-0.293c0.336-0.4,0.932-0.448,1.328-0.113c0.398,0.335,0.449,0.931,0.115,1.329
				l-0.24,0.284C829.074,81.817,828.804,81.933,828.535,81.933z M933.615,79.981c-0.258,0-0.516-0.105-0.701-0.312l-0.25-0.276
				c-0.35-0.385-0.322-0.981,0.063-1.333s0.98-0.324,1.332,0.062l0.258,0.284c0.348,0.387,0.316,0.983-0.07,1.332
				C934.066,79.901,933.839,79.981,933.615,79.981z M833.945,76.153c-0.248,0-0.496-0.098-0.682-0.292
				c-0.361-0.376-0.348-0.973,0.029-1.333l0.279-0.265c0.377-0.356,0.975-0.34,1.332,0.04c0.357,0.379,0.34,0.976-0.039,1.333
				l-0.268,0.254C834.414,76.066,834.179,76.153,833.945,76.153z M927.996,74.404c-0.223,0-0.447-0.079-0.627-0.239l-0.275-0.242
				c-0.393-0.342-0.434-0.938-0.092-1.331s0.938-0.434,1.33-0.091l0.291,0.256c0.391,0.346,0.424,0.942,0.078,1.332
				C928.513,74.297,928.255,74.404,927.996,74.404z M839.972,71.021c-0.283,0-0.564-0.127-0.75-0.371
				c-0.316-0.414-0.236-1.005,0.176-1.322l0.307-0.232c0.418-0.313,1.008-0.23,1.322,0.187c0.313,0.416,0.229,1.007-0.188,1.32
				l-0.295,0.223C840.375,70.958,840.171,71.021,839.972,71.021z M921.785,69.499c-0.188,0-0.377-0.056-0.543-0.172l-0.297-0.207
				c-0.432-0.294-0.541-0.88-0.248-1.311c0.293-0.429,0.881-0.542,1.311-0.248l0.32,0.224c0.426,0.3,0.529,0.889,0.229,1.314
				C922.373,69.359,922.082,69.499,921.785,69.499z M846.542,66.604c-0.322,0-0.635-0.165-0.811-0.461
				c-0.268-0.448-0.119-1.026,0.328-1.292l0.33-0.195c0.447-0.262,1.027-0.113,1.291,0.337c0.264,0.449,0.111,1.027-0.338,1.291
				l-0.318,0.188C846.873,66.561,846.707,66.604,846.542,66.604z M915.056,65.33c-0.152,0-0.307-0.037-0.449-0.115l-0.326-0.176
				c-0.459-0.246-0.631-0.817-0.385-1.277c0.244-0.459,0.816-0.632,1.275-0.386l0.338,0.182c0.457,0.249,0.625,0.822,0.377,1.279
				C915.714,65.152,915.39,65.33,915.056,65.33z M853.576,62.963c-0.361,0-0.705-0.207-0.861-0.557
				c-0.215-0.475-0.002-1.033,0.473-1.247l0.354-0.157c0.475-0.21,1.031,0.007,1.242,0.483c0.211,0.477-0.006,1.033-0.482,1.244
				l-0.34,0.151C853.835,62.936,853.705,62.963,853.576,62.963z M907.902,61.956c-0.117,0-0.236-0.022-0.352-0.069l-0.348-0.139
				c-0.482-0.193-0.719-0.742-0.525-1.226s0.744-0.72,1.225-0.526l0.354,0.142c0.482,0.195,0.717,0.744,0.521,1.228
				C908.628,61.732,908.275,61.956,907.902,61.956z M860.976,60.149c-0.4,0-0.773-0.258-0.898-0.66
				c-0.156-0.497,0.119-1.026,0.615-1.183l0.367-0.114c0.496-0.152,1.025,0.124,1.18,0.621s-0.123,1.026-0.621,1.181l-0.359,0.112
				C861.166,60.135,861.07,60.149,860.976,60.149z M900.404,59.421c-0.082,0-0.166-0.011-0.25-0.034l-0.359-0.098
				c-0.504-0.136-0.801-0.654-0.664-1.157c0.135-0.503,0.66-0.799,1.156-0.665l0.365,0.1c0.504,0.138,0.799,0.657,0.66,1.159
				C901.199,59.146,900.818,59.421,900.404,59.421z M868.65,58.203c-0.443,0-0.838-0.313-0.924-0.765
				c-0.1-0.512,0.234-1.006,0.746-1.105l0.375-0.071c0.51-0.102,1.004,0.24,1.102,0.751c0.098,0.512-0.24,1.005-0.752,1.102
				l-0.367,0.07C868.769,58.197,868.71,58.203,868.65,58.203z M892.666,57.763c-0.049,0-0.096-0.004-0.145-0.011l-0.369-0.056
				c-0.514-0.077-0.871-0.556-0.793-1.072c0.076-0.515,0.555-0.869,1.07-0.794l0.379,0.058c0.514,0.079,0.867,0.561,0.789,1.075
				C893.525,57.429,893.123,57.763,892.666,57.763z M876.496,57.146c-0.488,0-0.902-0.376-0.939-0.871
				c-0.041-0.519,0.348-0.973,0.867-1.013l0.383-0.028c0.523-0.031,0.971,0.355,1.006,0.875c0.037,0.52-0.354,0.97-0.873,1.007
				l-0.369,0.027C876.544,57.145,876.519,57.146,876.496,57.146z M884.787,56.995c-0.014,0-0.025,0-0.039-0.001l-0.371-0.014
				c-0.52-0.018-0.928-0.455-0.908-0.976c0.018-0.521,0.482-0.921,0.975-0.909l0.379,0.014c0.521,0.021,0.926,0.458,0.906,0.979
				C885.708,56.597,885.291,56.995,884.787,56.995z"/>
			<g>
				<path fill="#5F5F5D" d="M799.742,87.993c0.574,0.189,1.156,0.385,1.742,0.587c0.588,0.203,1.148,0.44,1.68,0.714
					s1.02,0.605,1.463,0.998c0.443,0.392,0.809,0.872,1.094,1.441c0.338,0.667,0.512,1.388,0.527,2.161
					c0.014,0.774-0.115,1.573-0.387,2.399l-1.828,5.532l-15.756-5.2l1.826-5.532c0.273-0.826,0.646-1.546,1.117-2.159
					c0.473-0.613,1.043-1.088,1.711-1.423c0.568-0.287,1.137-0.459,1.703-0.518c0.568-0.059,1.135-0.042,1.703,0.047
					c0.568,0.089,1.133,0.223,1.695,0.4C798.597,87.619,799.166,87.802,799.742,87.993z M798.953,90.382
					c-1.092-0.36-2.023-0.626-2.791-0.798c-0.77-0.173-1.451-0.127-2.047,0.135c-0.922,0.415-1.57,1.191-1.945,2.326l-0.957,2.899
					l11.463,3.783l0.957-2.898c0.375-1.136,0.316-2.145-0.178-3.028c-0.32-0.564-0.879-1.018-1.674-1.362
					C800.986,91.095,800.044,90.743,798.953,90.382z"/>
				<path fill="#5F5F5D" d="M814.05,78.745l-3.467-0.627l-3.191,5.717l2.352,2.622l-1.305,2.339l-11.523-13.398l0.988-1.77
					l17.453,2.777L814.05,78.745z M800.734,76.302l5.17,5.848l2.488-4.457L800.734,76.302z"/>
				<path fill="#5F5F5D" d="M817.332,74.146l-13.195-10.058l1.525-2.001l13.197,10.058L817.332,74.146z"/>
				<path fill="#5F5F5D" d="M821.96,68.266l-11.732-11.733l1.779-1.78l10.135,10.135l5.65-5.651l1.6,1.599L821.96,68.266z"/>
				<path fill="#5F5F5D" d="M830.955,51.184l4.076,5.478l-2.02,1.502l-4.076-5.478l-9.811-4.872l2.207-1.642l7.139,3.78
					l-1.566-7.925l2.205-1.641L830.955,51.184z"/>
				<path fill="#5F5F5D" d="M847.367,49.351l-6.922-15.079l2.289-1.05l6.922,15.079L847.367,49.351z"/>
				<path fill="#5F5F5D" d="M863.904,43.472l-10.561-9.142l3.184,11.232l-2.422,0.686l-4.523-15.963l2.219-0.629l10.553,9.12
					l-3.176-11.21l2.42-0.687l4.527,15.964L863.904,43.472z"/>
				<path fill="#5F5F5D" d="M880.765,36.609c0.061,0.759-0.031,1.452-0.277,2.079s-0.615,1.172-1.109,1.631
					c-0.492,0.461-1.094,0.829-1.805,1.103c-0.711,0.275-1.5,0.448-2.367,0.517c-1.254,0.101-2.359,0.025-3.314-0.226
					s-1.859-0.748-2.713-1.49l1.541-1.783c0.652,0.556,1.326,0.919,2.025,1.088c0.701,0.17,1.475,0.221,2.328,0.153
					c1.084-0.086,1.906-0.375,2.467-0.864c0.561-0.489,0.811-1.136,0.746-1.941c-0.063-0.759-0.324-1.314-0.789-1.667
					c-0.234-0.184-0.477-0.313-0.732-0.386c-0.256-0.074-0.633-0.128-1.135-0.166l-1.975-0.123
					c-1.361-0.078-2.441-0.437-3.242-1.074c-0.865-0.693-1.352-1.715-1.459-3.063c-0.059-0.712,0.018-1.376,0.227-1.993
					c0.207-0.616,0.529-1.161,0.969-1.632c0.436-0.472,0.986-0.851,1.65-1.138c0.662-0.286,1.426-0.465,2.295-0.534
					c1.1-0.088,2.064-0.017,2.893,0.213s1.625,0.649,2.391,1.258l-1.477,1.708c-0.551-0.454-1.131-0.747-1.742-0.877
					c-0.609-0.13-1.264-0.167-1.959-0.112c-0.977,0.078-1.705,0.381-2.184,0.911c-0.48,0.529-0.691,1.166-0.631,1.908
					c0.025,0.311,0.098,0.588,0.219,0.836c0.121,0.248,0.297,0.464,0.531,0.647c0.463,0.353,1.104,0.559,1.92,0.618l1.904,0.128
					c0.781,0.063,1.414,0.171,1.895,0.328c0.48,0.157,0.912,0.376,1.291,0.657c0.482,0.367,0.857,0.827,1.129,1.383
					C880.544,35.263,880.708,35.896,880.765,36.609z"/>
				<path fill="#5F5F5D" d="M897.738,31.126c-0.076,0.727-0.27,1.382-0.58,1.967s-0.721,1.072-1.23,1.465
					c-0.51,0.392-1.104,0.682-1.777,0.869c-0.676,0.187-1.416,0.239-2.219,0.155l-3.756-0.392L887.5,41.68l-2.504-0.261
					l1.721-16.502l6.258,0.653c0.805,0.083,1.516,0.287,2.141,0.609c0.621,0.323,1.141,0.729,1.559,1.217
					c0.418,0.489,0.719,1.055,0.9,1.699C897.757,29.739,897.81,30.416,897.738,31.126z M895.234,30.865
					c0.092-0.881-0.104-1.588-0.588-2.123c-0.482-0.534-1.164-0.848-2.045-0.939l-3.615-0.377l-0.574,5.493l3.617,0.377
					c0.879,0.091,1.613-0.07,2.193-0.485C894.806,32.395,895.142,31.746,895.234,30.865z"/>
				<path fill="#5F5F5D" d="M900.044,43.607l3.996-16.103l2.443,0.606l-3.996,16.104L900.044,43.607z"/>
				<path fill="#5F5F5D" d="M915.785,48.93l-0.59-7.794l-2.912-1.19l-2.646,6.471l-2.328-0.952l6.277-15.358l5.953,2.434
					c0.734,0.3,1.348,0.681,1.838,1.142c0.492,0.461,0.865,0.975,1.121,1.541c0.254,0.566,0.381,1.171,0.377,1.816
					s-0.137,1.29-0.402,1.938c-0.453,1.107-1.113,1.882-1.982,2.324c-0.869,0.442-1.785,0.609-2.746,0.5l0.758,8.241L915.785,48.93z
					 M920.13,38.056c0.313-0.766,0.314-1.459,0.008-2.083c-0.309-0.622-0.85-1.093-1.627-1.41l-3.451-1.411l-1.977,4.832l3.453,1.41
					c0.777,0.317,1.49,0.365,2.145,0.144C919.333,39.315,919.816,38.822,920.13,38.056z"/>
				<path fill="#5F5F5D" d="M929.593,57.071l0.873-3.413l-5.477-3.59l-2.781,2.161l-2.242-1.47l14.186-10.54l1.695,1.111
					l-4.012,17.211L929.593,57.071z M932.978,43.963l-6.203,4.74l4.27,2.798L932.978,43.963z"/>
				<path fill="#5F5F5D" d="M946.691,52.857l-9.688,10.563l-1.854-1.701l9.686-10.563l-3.365-3.087l1.527-1.666l8.586,7.875
					l-1.527,1.666L946.691,52.857z"/>
				<path fill="#5F5F5D" d="M942.583,69.261l12.725-10.647l1.615,1.93L944.199,71.19L942.583,69.261z"/>
				<path fill="#5F5F5D" d="M960.337,80.299c-0.674,0.417-1.289,0.788-1.846,1.114c-0.557,0.325-1.084,0.588-1.584,0.786
					c-0.496,0.198-0.994,0.324-1.492,0.375s-1.023,0.012-1.58-0.119c-0.793-0.187-1.508-0.511-2.15-0.973
					c-0.641-0.462-1.193-1.07-1.658-1.823c-0.467-0.753-0.76-1.517-0.883-2.291c-0.121-0.774-0.09-1.556,0.098-2.347
					c0.131-0.556,0.332-1.045,0.6-1.467c0.27-0.422,0.604-0.814,0.998-1.178c0.396-0.364,0.865-0.721,1.406-1.073
					c0.539-0.352,1.146-0.736,1.82-1.153c0.676-0.417,1.289-0.788,1.846-1.114c0.557-0.326,1.086-0.584,1.59-0.776
					c0.502-0.192,1.002-0.313,1.5-0.365c0.496-0.052,1.023-0.012,1.58,0.119c0.791,0.187,1.506,0.508,2.143,0.964
					c0.639,0.455,1.189,1.06,1.654,1.813c0.465,0.753,0.762,1.52,0.887,2.3c0.127,0.78,0.096,1.566-0.09,2.357
					c-0.131,0.556-0.332,1.045-0.602,1.467c-0.27,0.421-0.604,0.811-1.004,1.168c-0.4,0.356-0.871,0.711-1.41,1.063
					C961.619,79.499,961.011,79.883,960.337,80.299z M959.015,78.158c0.713-0.441,1.299-0.816,1.756-1.125
					c0.455-0.31,0.828-0.594,1.115-0.854s0.506-0.513,0.654-0.76c0.148-0.247,0.264-0.514,0.342-0.8
					c0.109-0.415,0.131-0.853,0.063-1.314c-0.064-0.462-0.229-0.904-0.488-1.327c-0.262-0.423-0.584-0.768-0.967-1.033
					c-0.385-0.265-0.785-0.441-1.205-0.529c-0.291-0.057-0.58-0.075-0.867-0.053c-0.289,0.022-0.611,0.104-0.973,0.244
					c-0.361,0.141-0.781,0.347-1.264,0.616c-0.48,0.271-1.078,0.625-1.791,1.066c-0.715,0.441-1.301,0.816-1.758,1.126
					c-0.455,0.31-0.828,0.594-1.115,0.854s-0.504,0.512-0.652,0.76c-0.15,0.247-0.264,0.514-0.342,0.8
					c-0.109,0.414-0.133,0.852-0.064,1.313c0.064,0.461,0.229,0.903,0.488,1.326c0.264,0.424,0.584,0.768,0.969,1.033
					c0.383,0.265,0.783,0.442,1.203,0.53c0.291,0.058,0.58,0.075,0.867,0.052c0.289-0.021,0.611-0.104,0.975-0.244
					c0.359-0.14,0.781-0.346,1.262-0.616S958.3,78.599,959.015,78.158z"/>
				<path fill="#5F5F5D" d="M958.609,97.907l8.324-11.215l-10.963,4.017l-0.865-2.364l15.578-5.709l0.795,2.167l-8.303,11.208
					l10.941-4.009l0.865,2.363l-15.578,5.708L958.609,97.907z"/>
			</g>
		</g>
		<g>
			<path fill="#5F5F5D" d="M881.923,148.162c-19.814,0-35.516-21.199-36.174-22.102l-0.406-0.556l0.406-0.556
				c0.658-0.902,16.359-22.105,36.174-22.105c19.805,0,35.514,21.203,36.172,22.105l0.406,0.556l-0.406,0.556
				C917.437,126.963,901.728,148.162,881.923,148.162z M847.699,125.505c2.635,3.36,17.107,20.771,34.225,20.771
				c17.107,0,31.588-17.408,34.223-20.771c-2.635-3.361-17.113-20.774-34.223-20.774
				C864.806,104.73,850.333,122.144,847.699,125.505z"/>
			<path fill="#5F5F5D" d="M881.923,137.766c-6.766,0-12.27-5.5-12.27-12.261c0-6.76,5.504-12.261,12.27-12.261
				c6.756,0,12.252,5.5,12.252,12.261C894.175,132.266,888.679,137.766,881.923,137.766z M881.923,115.131
				c-5.725,0-10.383,4.654-10.383,10.374c0,5.72,4.658,10.374,10.383,10.374c5.715,0,10.365-4.654,10.365-10.374
				C892.289,119.785,887.638,115.131,881.923,115.131z"/>
			<path fill="#5F5F5D" d="M881.923,143.801c-15.924,0-28.527-17.016-29.057-17.74l-0.406-0.556l0.406-0.556
				c0.529-0.724,13.133-17.739,29.057-17.739c15.916,0,28.525,17.015,29.055,17.739l0.406,0.556l-0.406,0.556
				C910.449,126.785,897.839,143.801,881.923,143.801z M854.82,125.504c2.314,2.929,13.701,16.41,27.104,16.41
				c13.393,0,24.785-13.479,27.104-16.409c-2.318-2.931-13.711-16.409-27.104-16.409
				C868.507,109.096,857.132,122.574,854.82,125.504z"/>
			<path fill="#5F5F5D" d="M881.923,132.107c-3.645,0-6.609-2.963-6.609-6.603c0-3.64,2.965-6.602,6.609-6.602
				c3.635,0,6.594,2.962,6.594,6.602C888.517,129.145,885.558,132.107,881.923,132.107z M881.923,120.79
				c-2.605,0-4.723,2.115-4.723,4.715c0,2.601,2.117,4.716,4.723,4.716c2.596,0,4.707-2.115,4.707-4.716
				C886.63,122.905,884.519,120.79,881.923,120.79z"/>
		</g>
		<path fill="#5F5F5D" d="M892.74,220.545h-1.887c0-4.68-3.809-8.486-8.488-8.486s-8.488,3.807-8.488,8.486h-1.887
			c0-5.72,4.654-10.373,10.375-10.373S892.74,214.825,892.74,220.545z"/>
		<path fill="#5F5F5D" d="M888.966,220.545h-1.887c0-2.598-2.115-4.711-4.715-4.711s-4.715,2.113-4.715,4.711h-1.887
			c0-3.638,2.961-6.598,6.602-6.598S888.966,216.907,888.966,220.545z"/>
		<path fill="#5F5F5D" d="M885.195,220.545h-1.887c0-0.518-0.424-0.938-0.943-0.938s-0.943,0.42-0.943,0.938h-1.887
			c0-1.558,1.27-2.824,2.83-2.824S885.195,218.987,885.195,220.545z"/>
	</g>
	<path fill="#5F5F5D" d="M124.9,250.775l-0.401-0.005l0.203-12.998l0.35,0.005L124.9,250.775z M132.276,250.643l-0.608-12.984
		l0.376-0.02l0.606,12.986L132.276,250.643z M117.129,250.451l-0.375-0.027l0.962-12.965l0.375,0.028L117.129,250.451z
		 M140.031,250.037l-1.419-12.922l0.352-0.039l1.463,12.916L140.031,250.037z M109.394,249.649l-0.376-0.052l1.774-12.878
		l0.369,0.051L109.394,249.649z M147.735,248.95l-2.228-12.808l0.371-0.064l2.228,12.808L147.735,248.95z M101.736,248.37
		l-0.393-0.079l2.589-12.739l0.344,0.069L101.736,248.37z M155.336,247.39l-2.986-12.652l0.336-0.081l3.045,12.639L155.336,247.39z
		 M94.153,246.609l-0.387-0.104l3.391-12.55l0.34,0.091L94.153,246.609z M162.846,245.351l-3.777-12.439l0.324-0.099l3.852,12.416
		L162.846,245.351z M86.714,244.383l-0.387-0.13l4.156-12.317l0.326,0.109L86.714,244.383z M170.248,242.832l-4.592-12.162
		l0.354-0.134l4.592,12.162L170.248,242.832z M79.414,241.688l-0.37-0.15L83.95,229.5l0.327,0.133L79.414,241.688z M177.453,239.862
		l-5.345-11.851l0.334-0.15l5.364,11.842L177.453,239.862z M72.297,238.543l-0.347-0.168l5.65-11.707l0.328,0.157L72.297,238.543z
		 M184.444,236.453l-6.055-11.504l0.303-0.16l6.115,11.473L184.444,236.453z M65.411,234.969l-0.357-0.201l6.396-11.318l0.297,0.166
		L65.411,234.969z M191.217,232.61l-6.763-11.103l0.31-0.189l6.785,11.089L191.217,232.61z M58.735,230.958l-0.315-0.204
		l7.058-10.916l0.315,0.203L58.735,230.958z M197.73,228.358l-7.432-10.667l0.279-0.195l7.489,10.626L197.73,228.358z M52.35,226.56
		l-0.314-0.231l7.719-10.461l0.29,0.214L52.35,226.56z M203.978,223.701l-8.097-10.171l0.282-0.225l8.121,10.151L203.978,223.701z
		 M46.252,221.777l-0.328-0.273l8.372-9.945l0.249,0.207L46.252,221.777z M209.907,218.68l-8.699-9.66l0.252-0.229l8.752,9.613
		L209.907,218.68z M40.423,216.594l-0.286-0.271l8.962-9.418l0.259,0.246L40.423,216.594z M215.513,213.305l-9.268-9.117
		l0.237-0.243l9.318,9.065L215.513,213.305z M34.938,211.068l-0.256-0.275l9.516-8.857l0.256,0.275L34.938,211.068z M220.788,207.58
		l-9.827-8.512l0.209-0.242l9.899,8.427L220.788,207.58z M29.815,205.227l-0.249-0.303l10.057-8.238l0.229,0.278L29.815,205.227z
		 M225.698,201.537l-10.351-7.865l0.227-0.299l10.351,7.865L225.698,201.537z M25.062,199.078l-0.241-0.334l10.562-7.58l0.2,0.275
		L25.062,199.078z M230.215,195.215l-10.816-7.211l0.2-0.301l10.832,7.188L230.215,195.215z M20.697,192.641l-0.22-0.349
		l11.007-6.917l0.183,0.289L20.697,192.641z M234.324,188.64l-11.228-6.554l0.171-0.294l11.262,6.493L234.324,188.64z
		 M16.724,185.915l-0.187-0.341l11.418-6.215l0.175,0.32L16.724,185.915z M238.024,181.805l-11.617-5.834l0.157-0.315l11.638,5.794
		L238.024,181.805z M13.2,178.994l-0.17-0.362l11.775-5.509l0.15,0.32L13.2,178.994z M241.291,174.753l-11.962-5.09l0.133-0.314
		l11.988,5.029L241.291,174.753z M10.103,171.844l-0.15-0.382l12.104-4.741l0.126,0.32L10.103,171.844z M244.103,167.528
		l-12.25-4.354l0.114-0.324l12.271,4.292L244.103,167.528z M7.462,164.51l-0.126-0.39l12.377-3.975l0.106,0.329L7.462,164.51z
		 M246.471,160.1l-12.508-3.545l0.103-0.361l12.508,3.545L246.471,160.1z M5.287,157.029l-0.099-0.389l12.603-3.188l0.087,0.34
		L5.287,157.029z M248.361,152.567l-12.699-2.782l0.061-0.282l6.368,1.306l6.354,1.373L248.361,152.567z M3.587,149.428
		l-0.073-0.389l12.779-2.384l0.055,0.29l-6.375,1.271L3.587,149.428z M249.779,144.914l-12.85-1.973l0.057-0.375l12.849,1.98
		L249.779,144.914z M2.367,141.748l-0.047-0.376l12.898-1.618l0.047,0.369L2.367,141.748z M250.717,137.191l-12.948-1.163
		l0.031-0.352l12.952,1.117L250.717,137.191z M1.626,134.002l-0.023-0.375l12.975-0.811l0.023,0.377L1.626,134.002z
		 M251.175,129.428l-12.995-0.355l0.01-0.375l12.995,0.356L251.175,129.428z M1.365,126.256l0-0.402h13l0,0.351L1.365,126.256z
		 M238.162,122.08l-0.012-0.35l12.992-0.457l0.014,0.402L238.162,122.08z M14.527,119.771l-12.98-0.707l0.022-0.402l12.978,0.761
		L14.527,119.771z M237.718,115.128l-0.031-0.319l12.936-1.294l0.039,0.399L237.718,115.128z M15.113,112.833l-12.91-1.524
		l0.043-0.37l12.911,1.519L15.113,112.833z M236.844,108.218l-0.055-0.347l12.834-2.071l0.063,0.396L236.844,108.218z
		 M16.133,105.921l-12.798-2.285l0.071-0.394l12.789,2.334L16.133,105.921z M235.542,101.38l-0.077-0.343l12.677-2.879l0.088,0.391
		L235.542,101.38z M17.571,99.137L4.956,95.996l0.09-0.365l12.615,3.141L17.571,99.137z M233.811,94.619l-0.079-0.271l6.221-1.887
		l6.24-1.819l0.112,0.384L233.811,94.619z M19.443,92.414L7.041,88.516l0.113-0.359l12.402,3.897L19.443,92.414z M231.665,88
		l-0.125-0.347l12.233-4.398l0.131,0.363L231.665,88z M21.73,85.828L9.592,81.174l0.147-0.381l12.115,4.714L21.73,85.828z
		 M229.104,81.518l-0.141-0.324l11.915-5.2l0.159,0.367L229.104,81.518z M24.424,79.404l-11.833-5.383l0.17-0.371l11.805,5.444
		L24.424,79.404z M226.144,75.214l-0.171-0.335l11.576-5.915l0.171,0.335L226.144,75.214z M27.509,73.172l-11.472-6.115l0.188-0.352
		l11.449,6.157L27.509,73.172z M222.786,69.087l-0.185-0.313l11.183-6.629l0.199,0.335L222.786,69.087z M30.982,67.135
		l-11.075-6.808l0.216-0.349l11.038,6.867L30.982,67.135z M219.055,63.188l-0.192-0.283l10.73-7.339l0.231,0.34L219.055,63.188z
		 M34.812,61.341l-10.609-7.513l0.217-0.306l10.609,7.513L34.812,61.341z M214.974,57.546l-0.218-0.282l10.259-7.984l0.243,0.313
		L214.974,57.546z M39.008,55.778l-10.127-8.152l0.246-0.305l10.106,8.177L39.008,55.778z M210.542,52.154l-0.225-0.255l9.733-8.618
		l0.271,0.309L210.542,52.154z M43.544,50.479l-9.612-8.752l0.265-0.29l9.589,8.777L43.544,50.479z M205.796,47.061l-0.265-0.267
		l9.218-9.167l0.265,0.267L205.796,47.061z M48.416,45.456l-9.09-9.293l0.308-0.299l9.014,9.368L48.416,45.456z M200.719,42.247
		l-0.254-0.226l8.618-9.733l0.307,0.273L200.719,42.247z M53.55,40.78l-8.456-9.874l0.313-0.267l8.401,9.92L53.55,40.78z
		 M195.397,37.792l-0.296-0.231l8.009-10.239l0.296,0.231L195.397,37.792z M58.992,36.407l-7.841-10.369l0.329-0.248l7.784,10.412
		L58.992,36.407z M189.789,33.66l-0.309-0.212l7.362-10.714l0.309,0.212L189.789,33.66z M64.691,32.383l-7.188-10.832l0.344-0.227
		l7.129,10.871L64.691,32.383z M183.924,29.877l-0.292-0.175l6.651-11.17l0.352,0.211L183.924,29.877z M70.615,28.73l-6.472-11.274
		l0.346-0.198l6.434,11.297L70.615,28.73z M177.856,26.478l-0.303-0.156l5.936-11.566l0.363,0.188L177.856,26.478z M76.778,25.441
		l-5.773-11.647l0.368-0.182l5.713,11.678L76.778,25.441z M171.602,23.469l-0.343-0.151l5.237-11.898l0.343,0.151L171.602,23.469z
		 M83.115,22.553l-5.011-11.995l0.357-0.149l4.993,12.003L83.115,22.553z M165.151,20.849l-0.331-0.122l4.459-12.211l0.375,0.138
		L165.151,20.849z M89.634,20.063L85.387,7.775l0.365-0.125l4.231,12.292L89.634,20.063z M158.539,18.635l-0.259-0.078l1.772-6.254
		l1.856-6.229l0.376,0.112L158.539,18.635z M96.292,17.988L92.808,5.463l0.386-0.106l3.438,12.537L96.292,17.988z M151.819,16.845
		l-0.366-0.085l2.938-12.664l0.366,0.085L151.819,16.845z M103.115,16.325l-1.403-6.347l-1.338-6.361l0.388-0.081l2.637,12.729
		L103.115,16.325z M144.97,15.474l-0.346-0.058l2.129-12.824l0.396,0.066L144.97,15.474z M109.907,15.113l-1.874-12.864l0.397-0.057
		l1.824,12.871L109.907,15.113z M138.07,14.535l-0.346-0.036l1.313-12.934l0.402,0.042L138.07,14.535z M116.825,14.318
		l-1.063-12.956l0.375-0.031l1.063,12.956L116.825,14.318z M131.123,14.025l-0.348-0.014l0.508-12.99l0.4,0.016L131.123,14.025z
		 M123.782,13.951l-0.254-12.997l0.376-0.008l0.253,12.998L123.782,13.951z"/>
</g>
</svg>
