<?xml version="1.0" encoding="utf-8"?>
<!-- Generator: Adobe Illustrator 16.0.0, SVG Export Plug-In . SVG Version: 6.00 Build 0)  -->
<!DOCTYPE svg PUBLIC "-//W3C//DTD SVG 1.1//EN" "http://www.w3.org/Graphics/SVG/1.1/DTD/svg11.dtd">
<svg version="1.1" id="Layer_1" xmlns="http://www.w3.org/2000/svg" xmlns:xlink="http://www.w3.org/1999/xlink" x="0px" y="0px"
	 width="182px" height="103.75px" viewBox="0 0 182 103.75" style="enable-background:new 0 0 182 103.75;" xml:space="preserve">
<g>
	<path d="M41.4751,3.46289H28.13135c-0.45703,0-0.82813,0-0.82813,0v15c0,0,0.37109,0,0.82813,0h7.18457v-5.80908h-1.95605v-2.26318
		h1.95605V8.72119c0-1.93701,1.18262-2.99268,2.91113-2.99268c0.82715,0,1.53906,0.06152,1.74609,0.08936v2.0249L38.7749,7.84326
		c-0.93945,0-1.12207,0.44629-1.12207,1.10156v1.4458h2.24121l-0.29102,2.26318h-1.9502v5.80908h3.82227
		c0.45703,0,0.82813,0,0.82813,0v-15C42.30322,3.46289,41.93213,3.46289,41.4751,3.46289z"/>
	<path d="M23.30811,5.03516c-0.67969,0.30078-1.40918,0.50439-2.1748,0.59521c0.78125-0.46777,1.38086-1.20996,1.66504-2.09424
		c-0.73145,0.43359-1.54199,0.74854-2.40527,0.91895c-0.69043-0.73633-1.67578-1.1958-2.76367-1.1958
		c-2.0918,0-3.78711,1.69482-3.78711,3.78711c0,0.2959,0.03418,0.58496,0.09766,0.8623
		c-3.14746-0.1582-5.93652-1.66553-7.80566-3.95605c-0.3252,0.55908-0.5127,1.20996-0.5127,1.90332
		c0,1.31396,0.66992,2.47266,1.68652,3.15137c-0.62207-0.01855-1.20703-0.18994-1.7168-0.47314
		C5.59033,8.5498,5.59033,8.56592,5.59033,8.58203c0,1.83496,1.30566,3.36523,3.03906,3.71338
		c-0.31738,0.08691-0.65332,0.13232-0.99805,0.13232c-0.24414,0-0.48145-0.02393-0.71289-0.06787
		c0.48242,1.50439,1.88086,2.59863,3.53809,2.62988c-1.2959,1.01563-2.92773,1.62109-4.70313,1.62109
		c-0.30664,0-0.60645-0.01758-0.90332-0.05273c1.67578,1.07373,3.66699,1.70117,5.80469,1.70117
		c6.96484,0,10.77344-5.77051,10.77344-10.77441c0-0.16455-0.00293-0.32715-0.00977-0.49023
		C22.15771,6.46094,22.80029,5.79395,23.30811,5.03516z"/>
	<g>
		<g>
			<path style="fill:none;" d="M62.58447,16.69287c0,0.97754-0.79199,1.76953-1.76953,1.76953H49.354
				c-0.97754,0-1.76953-0.79199-1.76953-1.76953V5.23242c0-0.97754,0.79199-1.76953,1.76953-1.76953h11.46094
				c0.97754,0,1.76953,0.79199,1.76953,1.76953V16.69287z"/>
			<g>
				<g>
					<rect x="57.0083" y="7.19385" style="fill:none;" width="3.44238" height="1.02783"/>
				</g>
			</g>
		</g>
		<path d="M58.83545,10.04736c-1.28906,0-1.46777,1.28613-1.46777,1.28613h2.74023
			C60.10791,11.3335,60.12451,10.04736,58.83545,10.04736z"/>
		<path d="M53.20752,9.05322c0-0.86816-0.58984-0.86816-0.58984-0.86816h-0.3125h-2.11621v1.8623h2.27832
			C52.86084,10.04736,53.20752,9.92139,53.20752,9.05322z"/>
		<path d="M52.61768,11.3335h-2.42871v2.22949h2.31641c0.34863-0.00928,0.99219-0.11865,0.99219-1.08398
			C53.49756,11.32178,52.61768,11.3335,52.61768,11.3335z"/>
		<rect x="57.0083" y="7.19385" style="fill:none;" width="3.44238" height="1.02783"/>
		<path style="fill:none;" d="M53.70557,10.51172c0,0,1.27344-0.09473,1.27344-1.58789s-1.04199-2.22168-2.36133-2.22168h-2.42871
			h-0.07129h-1.8418v8.34424h1.8418h0.07129h2.42871c0,0,2.65039,0.0835,2.65039-2.46289
			C55.26807,12.5835,55.38428,10.51172,53.70557,10.51172z"/>
		<path style="fill:none;" d="M58.80322,8.8252c-3.20898,0-3.20605,3.20557-3.20605,3.20557s-0.21973,3.18994,3.20605,3.18994
			c0,0,2.85547,0.16309,2.85547-2.21924h-1.46875c0,0,0.04883,0.89746-1.33789,0.89746c0,0-1.46875,0.09814-1.46875-1.45166h4.32422
			C61.70752,12.44727,62.18018,8.8252,58.80322,8.8252z"/>
		<path d="M60.81494,3.46289H49.354c-0.97754,0-1.76953,0-1.76953,0V18.4624c0,0,0.79199,0,1.76953,0h11.46094
			c0.97754,0,1.76953,0,1.76953,0V3.46289C62.58447,3.46289,61.79248,3.46289,60.81494,3.46289z M60.45068,7.19385v1.02783H57.0083
			V7.19385 M55.26807,12.5835c0,2.54639-2.65039,2.46289-2.65039,2.46289h-2.42871h-0.07129h-1.8418V6.70215h1.8418h0.07129h2.42871
			c1.31934,0,2.36133,0.72852,2.36133,2.22168s-1.27344,1.58789-1.27344,1.58789
			C55.38428,10.51172,55.26807,12.5835,55.26807,12.5835z M61.70752,12.44727H57.3833c0,1.5498,1.46875,1.45166,1.46875,1.45166
			c1.38672,0,1.33789-0.89746,1.33789-0.89746h1.46875c0,2.38232-2.85547,2.21924-2.85547,2.21924
			c-3.42578,0-3.20605-3.18994-3.20605-3.18994S55.59424,8.8252,58.80322,8.8252
			C62.18018,8.8252,61.70752,12.44727,61.70752,12.44727z"/>
	</g>
	<g>
		<polygon points="77.86475,13.48682 70.35791,6.60205 70.35791,18.46289 85.35791,18.46289 85.35791,6.43311 		"/>
		<polygon points="85.26318,3.46289 70.35791,3.46289 70.35791,3.56689 77.85107,10.43896 		"/>
	</g>
</g>
<circle style="fill:none;stroke:#FFFFFF;stroke-width:2;stroke-miterlimit:10;" cx="19.30713" cy="40.44092" r="17"/>
<polyline style="fill:none;stroke:#FFFFFF;stroke-width:1.00001;stroke-miterlimit:10;" points="17.74268,34.74365 
	22.74268,39.74365 17.74268,44.91064 "/>
<circle style="fill:none;stroke:#FFFFFF;stroke-width:1.00001;stroke-miterlimit:10;" cx="19.30713" cy="40.14795" r="17"/>
<polyline style="fill:none;stroke:#FFFFFF;stroke-width:1.5;stroke-miterlimit:10;" points="17.80713,35.06396 22.80713,40.06396 
	17.80713,45.23096 "/>
<circle style="fill:none;stroke:#FFFFFF;stroke-width:2;stroke-miterlimit:10;" cx="55.49756" cy="40.14795" r="17"/>
<circle style="fill:none;stroke:#FFFFFF;stroke-width:2;stroke-miterlimit:10;" cx="91.57471" cy="40.14795" r="17"/>
<circle style="fill:none;stroke:#FFFFFF;stroke-width:2;stroke-miterlimit:10;" cx="127.90771" cy="40.14795" r="17"/>
<line style="fill:none;stroke:#FFFFFF;stroke-width:2;stroke-miterlimit:10;" x1="84.57471" y1="36.45068" x2="98.57471" y2="36.45068"/>
<line style="fill:none;stroke:#FFFFFF;stroke-width:2;stroke-miterlimit:10;" x1="84.57471" y1="44.61768" x2="98.57471" y2="44.61768"/>
<line style="fill:none;stroke:#FFFFFF;stroke-width:2;stroke-miterlimit:10;" x1="84.57471" y1="40.53418" x2="98.57471" y2="40.53418"/>
<line style="fill:none;stroke:#FFFFFF;stroke-miterlimit:10;" x1="50.91064" y1="48.33301" x2="58.85791" y2="40.38623"/>
<line style="fill:none;stroke:#FFFFFF;stroke-miterlimit:10;" x1="54.95361" y1="36.48242" x2="47.00732" y2="44.42969"/>
<line style="fill:none;stroke:#FFFFFF;stroke-width:2;stroke-miterlimit:10;" x1="48.96045" y1="46.38232" x2="56.90674" y2="38.43555"/>
<polygon style="fill:#FFFFFF;" points="55.68213,35.00537 61.74365,33.4834 60.98389,36.51465 60.22412,39.54688 "/>
<g id="Layer_4">
	<polygon style="fill:#FFFFFF;" points="129.52588,37.48291 130.94385,38.91211 133.28857,36.54541 134.49463,37.7876 
		134.4917,33.9751 133.30127,33.9751 130.68018,33.9751 131.87256,35.14697 	"/>
	<polygon style="fill:#FFFFFF;" points="130.97705,43.24365 125.06494,43.24365 125.06494,37.49072 128.05811,37.49072 
		130.37842,35.09326 122.98682,35.09326 122.98682,45.32178 133.05322,45.32178 133.05322,37.98438 130.97705,40.42969 	"/>
</g>
</svg>
