<?xml version="1.0"?>
<svg xmlns="http://www.w3.org/2000/svg" xmlns:xlink="http://www.w3.org/1999/xlink" version="1.1" id="Layer_1" x="0px" y="0px" viewBox="0 0 477.139 477.139" style="enable-background:new 0 0 477.139 477.139;" xml:space="preserve" width="512px" height="512px" class=""><g><g>
	<g>
		<path d="M56.656,477.139c-14.515,0-29.03-5.525-40.081-16.575c-22.101-22.101-22.101-58.062,0-80.162l141.833-141.833    L16.575,96.737c-22.1-22.101-22.1-58.061,0-80.162c22.102-22.101,58.062-22.099,80.162,0L238.57,158.408L380.402,16.575    c22.1-22.099,58.061-22.1,80.162,0c22.101,22.101,22.101,58.062,0,80.162L318.731,238.569l141.833,141.833    c22.1,22.101,22.1,58.061,0,80.162c-22.102,22.102-58.062,22.1-80.162,0L238.57,318.731L96.737,460.564    C85.687,471.614,71.172,477.139,56.656,477.139z M56.656,19.99c-9.395,0-18.787,3.575-25.939,10.727    c-14.302,14.303-14.302,37.575,0,51.877l148.903,148.904c3.905,3.905,3.905,10.237,0,14.143L30.718,394.545    c-14.303,14.302-14.303,37.574,0,51.877c14.303,14.302,37.576,14.302,51.877,0l148.904-148.903c3.905-3.905,10.237-3.905,14.143,0    l148.904,148.903c14.303,14.303,37.575,14.304,51.877,0c14.302-14.303,14.302-37.575,0-51.877L297.518,245.641    c-3.905-3.905-3.905-10.237,0-14.143L446.422,82.594c14.303-14.302,14.303-37.574,0-51.877c-14.303-14.302-37.575-14.302-51.877,0    L245.641,179.621c-3.905,3.905-10.237,3.905-14.143,0L82.595,30.717C75.444,23.567,66.049,19.99,56.656,19.99z" data-original="#000000" class="active-path" data-old_color="#F7F4F4" fill="#F9F9F9"/>
	</g>
	<g>
		<path d="M266.07,204.569c-2.559,0-5.119-0.976-7.071-2.929c-3.905-3.905-3.905-10.237,0-14.143l87.5-87.5    c3.905-3.905,10.237-3.905,14.143,0s3.905,10.237,0,14.143l-87.5,87.5C271.188,203.593,268.629,204.569,266.07,204.569z" data-original="#000000" class="active-path" data-old_color="#F7F4F4" fill="#F9F9F9"/>
	</g>
	<g>
		<path d="M382.07,88.569c-2.559,0-5.119-0.977-7.071-2.929c-3.905-3.905-3.905-10.237,0-14.143l28.75-28.75    c3.905-3.904,10.237-3.904,14.143,0c3.905,3.905,3.905,10.237,0,14.143l-28.75,28.75C387.188,87.593,384.629,88.569,382.07,88.569    z" data-original="#000000" class="active-path" data-old_color="#F7F4F4" fill="#F9F9F9"/>
	</g>
</g></g> </svg>
